# Blender 5.1.1
# www.blender.org
mtllib rocket_booster_visual.mtl
o Cylinder
v 0.000000 -0.500000 -1.100000
v 0.000000 -0.500000 1.100000
v -0.097545 -0.490393 -1.100000
v -0.097545 -0.490393 1.100000
v -0.191342 -0.461940 -1.100000
v -0.191342 -0.461940 1.100000
v -0.277785 -0.415735 -1.100000
v -0.277785 -0.415735 1.100000
v -0.353553 -0.353553 -1.100000
v -0.353553 -0.353553 1.100000
v -0.415735 -0.277785 -1.100000
v -0.415735 -0.277785 1.100000
v -0.461940 -0.191342 -1.100000
v -0.461940 -0.191342 1.100000
v -0.490393 -0.097545 -1.100000
v -0.490393 -0.097545 1.100000
v -0.500000 0.000000 -1.100000
v -0.500000 0.000000 1.100000
v -0.490393 0.097545 -1.100000
v -0.490393 0.097545 1.100000
v -0.461940 0.191342 -1.100000
v -0.461940 0.191342 1.100000
v -0.415735 0.277785 -1.100000
v -0.415735 0.277785 1.100000
v -0.353553 0.353553 -1.100000
v -0.353553 0.353553 1.100000
v -0.277785 0.415735 -1.100000
v -0.277785 0.415735 1.100000
v -0.191342 0.461940 -1.100000
v -0.191342 0.461940 1.100000
v -0.097545 0.490393 -1.100000
v -0.097545 0.490393 1.100000
v 0.000000 0.500000 -1.100000
v 0.000000 0.500000 1.100000
v 0.097545 0.490393 -1.100000
v 0.097545 0.490393 1.100000
v 0.191342 0.461940 -1.100000
v 0.191342 0.461940 1.100000
v 0.277785 0.415735 -1.100000
v 0.277785 0.415735 1.100000
v 0.353553 0.353553 -1.100000
v 0.353553 0.353553 1.100000
v 0.415735 0.277785 -1.100000
v 0.415735 0.277785 1.100000
v 0.461940 0.191342 -1.100000
v 0.461940 0.191342 1.100000
v 0.490393 0.097545 -1.100000
v 0.490393 0.097545 1.100000
v 0.500000 0.000000 -1.100000
v 0.500000 0.000000 1.100000
v 0.490393 -0.097545 -1.100000
v 0.490393 -0.097545 1.100000
v 0.461940 -0.191342 -1.100000
v 0.461940 -0.191342 1.100000
v 0.415735 -0.277785 -1.100000
v 0.415735 -0.277785 1.100000
v 0.353553 -0.353553 -1.100000
v 0.353553 -0.353553 1.100000
v 0.277785 -0.415735 -1.100000
v 0.277785 -0.415735 1.100000
v 0.191342 -0.461940 -1.100000
v 0.191342 -0.461940 1.100000
v 0.097545 -0.490393 -1.100000
v 0.097545 -0.490393 1.100000
vn -0.0000 -1.0000 -0.0000
vn -0.1951 -0.9808 -0.0000
vn -0.3827 -0.9239 -0.0000
vn -0.5556 -0.8315 -0.0000
vn -0.7071 -0.7071 -0.0000
vn -0.8315 -0.5556 -0.0000
vn -0.9239 -0.3827 -0.0000
vn -0.9808 -0.1951 -0.0000
vn -1.0000 -0.0000 -0.0000
vn -0.9808 0.1951 -0.0000
vn -0.9239 0.3827 -0.0000
vn -0.8315 0.5556 -0.0000
vn -0.7071 0.7071 -0.0000
vn -0.5556 0.8315 -0.0000
vn -0.3827 0.9239 -0.0000
vn -0.1951 0.9808 -0.0000
vn -0.0000 1.0000 -0.0000
vn 0.1951 0.9808 -0.0000
vn 0.3827 0.9239 -0.0000
vn 0.5556 0.8315 -0.0000
vn 0.7071 0.7071 -0.0000
vn 0.8315 0.5556 -0.0000
vn 0.9239 0.3827 -0.0000
vn 0.9808 0.1951 -0.0000
vn 1.0000 -0.0000 -0.0000
vn 0.9808 -0.1951 -0.0000
vn 0.9239 -0.3827 -0.0000
vn 0.8315 -0.5556 -0.0000
vn 0.7071 -0.7071 -0.0000
vn 0.5556 -0.8315 -0.0000
vn 0.3827 -0.9239 -0.0000
vn -0.0000 -0.0000 1.0000
vn 0.1951 -0.9808 -0.0000
vn -0.0000 -0.0000 -1.0000
vt 1.000000 0.500000
vt 1.000000 1.000000
vt 0.968750 1.000000
vt 0.968750 0.500000
vt 0.937500 1.000000
vt 0.937500 0.500000
vt 0.906250 1.000000
vt 0.906250 0.500000
vt 0.875000 1.000000
vt 0.875000 0.500000
vt 0.843750 1.000000
vt 0.843750 0.500000
vt 0.812500 1.000000
vt 0.812500 0.500000
vt 0.781250 1.000000
vt 0.781250 0.500000
vt 0.750000 1.000000
vt 0.750000 0.500000
vt 0.718750 1.000000
vt 0.718750 0.500000
vt 0.687500 1.000000
vt 0.687500 0.500000
vt 0.656250 1.000000
vt 0.656250 0.500000
vt 0.625000 1.000000
vt 0.625000 0.500000
vt 0.593750 1.000000
vt 0.593750 0.500000
vt 0.562500 1.000000
vt 0.562500 0.500000
vt 0.531250 1.000000
vt 0.531250 0.500000
vt 0.500000 1.000000
vt 0.500000 0.500000
vt 0.468750 1.000000
vt 0.468750 0.500000
vt 0.437500 1.000000
vt 0.437500 0.500000
vt 0.406250 1.000000
vt 0.406250 0.500000
vt 0.375000 1.000000
vt 0.375000 0.500000
vt 0.343750 1.000000
vt 0.343750 0.500000
vt 0.312500 1.000000
vt 0.312500 0.500000
vt 0.281250 1.000000
vt 0.281250 0.500000
vt 0.250000 1.000000
vt 0.250000 0.500000
vt 0.218750 1.000000
vt 0.218750 0.500000
vt 0.187500 1.000000
vt 0.187500 0.500000
vt 0.156250 1.000000
vt 0.156250 0.500000
vt 0.125000 1.000000
vt 0.125000 0.500000
vt 0.093750 1.000000
vt 0.093750 0.500000
vt 0.062500 1.000000
vt 0.062500 0.500000
vt 0.296822 0.485388
vt 0.250000 0.490000
vt 0.203178 0.485388
vt 0.158156 0.471731
vt 0.116663 0.449553
vt 0.080294 0.419706
vt 0.050447 0.383337
vt 0.028269 0.341844
vt 0.014612 0.296822
vt 0.010000 0.250000
vt 0.014612 0.203178
vt 0.028269 0.158156
vt 0.050447 0.116663
vt 0.080294 0.080294
vt 0.116663 0.050447
vt 0.158156 0.028269
vt 0.203178 0.014612
vt 0.250000 0.010000
vt 0.296822 0.014612
vt 0.341844 0.028269
vt 0.383337 0.050447
vt 0.419706 0.080294
vt 0.449553 0.116663
vt 0.471731 0.158156
vt 0.485388 0.203178
vt 0.490000 0.250000
vt 0.485388 0.296822
vt 0.471731 0.341844
vt 0.449553 0.383337
vt 0.419706 0.419706
vt 0.383337 0.449553
vt 0.341844 0.471731
vt 0.031250 1.000000
vt 0.031250 0.500000
vt 0.000000 1.000000
vt 0.000000 0.500000
vt 0.750000 0.490000
vt 0.796822 0.485388
vt 0.841844 0.471731
vt 0.883337 0.449553
vt 0.919706 0.419706
vt 0.949553 0.383337
vt 0.971731 0.341844
vt 0.985388 0.296822
vt 0.990000 0.250000
vt 0.985388 0.203178
vt 0.971731 0.158156
vt 0.949553 0.116663
vt 0.919706 0.080294
vt 0.883337 0.050447
vt 0.841844 0.028269
vt 0.796822 0.014612
vt 0.750000 0.010000
vt 0.703178 0.014612
vt 0.658156 0.028269
vt 0.616663 0.050447
vt 0.580294 0.080294
vt 0.550447 0.116663
vt 0.528269 0.158156
vt 0.514612 0.203178
vt 0.510000 0.250000
vt 0.514612 0.296822
vt 0.528269 0.341844
vt 0.550447 0.383337
vt 0.580294 0.419706
vt 0.616663 0.449553
vt 0.658156 0.471731
vt 0.703178 0.485388
s 1
usemtl main_body
f 1/1/1 2/2/1 4/3/2 3/4/2
f 3/4/2 4/3/2 6/5/3 5/6/3
f 5/6/3 6/5/3 8/7/4 7/8/4
f 7/8/4 8/7/4 10/9/5 9/10/5
f 9/10/5 10/9/5 12/11/6 11/12/6
f 11/12/6 12/11/6 14/13/7 13/14/7
f 13/14/7 14/13/7 16/15/8 15/16/8
f 15/16/8 16/15/8 18/17/9 17/18/9
f 17/18/9 18/17/9 20/19/10 19/20/10
f 19/20/10 20/19/10 22/21/11 21/22/11
f 21/22/11 22/21/11 24/23/12 23/24/12
f 23/24/12 24/23/12 26/25/13 25/26/13
f 25/26/13 26/25/13 28/27/14 27/28/14
f 27/28/14 28/27/14 30/29/15 29/30/15
f 29/30/15 30/29/15 32/31/16 31/32/16
f 31/32/16 32/31/16 34/33/17 33/34/17
f 33/34/17 34/33/17 36/35/18 35/36/18
f 35/36/18 36/35/18 38/37/19 37/38/19
f 37/38/19 38/37/19 40/39/20 39/40/20
f 39/40/20 40/39/20 42/41/21 41/42/21
f 41/42/21 42/41/21 44/43/22 43/44/22
f 43/44/22 44/43/22 46/45/23 45/46/23
f 45/46/23 46/45/23 48/47/24 47/48/24
f 47/48/24 48/47/24 50/49/25 49/50/25
f 49/50/25 50/49/25 52/51/26 51/52/26
f 51/52/26 52/51/26 54/53/27 53/54/27
f 53/54/27 54/53/27 56/55/28 55/56/28
f 55/56/28 56/55/28 58/57/29 57/58/29
f 57/58/29 58/57/29 60/59/30 59/60/30
f 59/60/30 60/59/30 62/61/31 61/62/31
f 4/63/32 2/64/32 64/65/32 62/66/32 60/67/32 58/68/32 56/69/32 54/70/32 52/71/32 50/72/32 48/73/32 46/74/32 44/75/32 42/76/32 40/77/32 38/78/32 36/79/32 34/80/32 32/81/32 30/82/32 28/83/32 26/84/32 24/85/32 22/86/32 20/87/32 18/88/32 16/89/32 14/90/32 12/91/32 10/92/32 8/93/32 6/94/32
f 61/62/31 62/61/31 64/95/33 63/96/33
f 63/96/33 64/95/33 2/97/1 1/98/1
f 1/99/34 3/100/34 5/101/34 7/102/34 9/103/34 11/104/34 13/105/34 15/106/34 17/107/34 19/108/34 21/109/34 23/110/34 25/111/34 27/112/34 29/113/34 31/114/34 33/115/34 35/116/34 37/117/34 39/118/34 41/119/34 43/120/34 45/121/34 47/122/34 49/123/34 51/124/34 53/125/34 55/126/34 57/127/34 59/128/34 61/129/34 63/130/34
o Cone
v 0.000000 -0.500000 1.100000
v -0.097545 -0.490393 1.100000
v -0.191342 -0.461940 1.100000
v -0.277785 -0.415735 1.100000
v -0.353553 -0.353553 1.100000
v -0.415735 -0.277785 1.100000
v -0.461940 -0.191342 1.100000
v -0.490393 -0.097545 1.100000
v -0.500000 0.000000 1.100000
v -0.490393 0.097545 1.100000
v -0.461940 0.191342 1.100000
v -0.415735 0.277785 1.100000
v -0.353553 0.353553 1.100000
v -0.277785 0.415735 1.100000
v -0.191342 0.461940 1.100000
v -0.097545 0.490393 1.100000
v 0.000000 0.500000 1.100000
v 0.097545 0.490393 1.100000
v 0.191342 0.461940 1.100000
v 0.277785 0.415735 1.100000
v 0.353553 0.353553 1.100000
v 0.415735 0.277785 1.100000
v 0.461940 0.191342 1.100000
v 0.490393 0.097545 1.100000
v 0.500000 0.000000 1.100000
v 0.490393 -0.097545 1.100000
v 0.461940 -0.191342 1.100000
v 0.415735 -0.277785 1.100000
v 0.353553 -0.353553 1.100000
v 0.277785 -0.415735 1.100000
v 0.191342 -0.461940 1.100000
v 0.097545 -0.490393 1.100000
v 0.000000 -0.000000 1.900000
vn -0.0000 -0.8480 0.5300
vn -0.0000 -0.0000 1.0000
vn -0.1654 -0.8317 0.5300
vn -0.3245 -0.7834 0.5300
vn -0.4711 -0.7051 0.5300
vn -0.5996 -0.5996 0.5300
vn -0.7051 -0.4711 0.5300
vn -0.7834 -0.3245 0.5300
vn -0.8317 -0.1654 0.5300
vn -0.8480 -0.0000 0.5300
vn -0.8317 0.1654 0.5300
vn -0.7834 0.3245 0.5300
vn -0.7051 0.4711 0.5300
vn -0.5996 0.5996 0.5300
vn -0.4711 0.7051 0.5300
vn -0.3245 0.7834 0.5300
vn -0.1654 0.8317 0.5300
vn -0.0000 0.8480 0.5300
vn 0.1654 0.8317 0.5300
vn 0.3245 0.7834 0.5300
vn 0.4711 0.7051 0.5300
vn 0.5996 0.5996 0.5300
vn 0.7051 0.4711 0.5300
vn 0.7834 0.3245 0.5300
vn 0.8317 0.1654 0.5300
vn 0.8480 -0.0000 0.5300
vn 0.8317 -0.1654 0.5300
vn 0.7834 -0.3245 0.5300
vn 0.7051 -0.4711 0.5300
vn 0.5996 -0.5996 0.5300
vn 0.4711 -0.7051 0.5300
vn 0.3245 -0.7834 0.5300
vn -0.0000 -0.0000 -1.0000
vn 0.1654 -0.8317 0.5300
vt 0.250000 0.490000
vt 0.250000 0.250000
vt 0.296822 0.485388
vt 0.341844 0.471731
vt 0.383337 0.449553
vt 0.419706 0.419706
vt 0.449553 0.383337
vt 0.471731 0.341844
vt 0.485388 0.296822
vt 0.490000 0.250000
vt 0.485388 0.203178
vt 0.471731 0.158156
vt 0.449553 0.116663
vt 0.419706 0.080294
vt 0.383337 0.050447
vt 0.341844 0.028269
vt 0.296822 0.014612
vt 0.250000 0.010000
vt 0.203178 0.014612
vt 0.158156 0.028269
vt 0.116663 0.050447
vt 0.080294 0.080294
vt 0.050447 0.116663
vt 0.028269 0.158156
vt 0.014612 0.203178
vt 0.010000 0.250000
vt 0.014612 0.296822
vt 0.028269 0.341844
vt 0.050447 0.383337
vt 0.080294 0.419706
vt 0.116663 0.449553
vt 0.158156 0.471731
vt 0.750000 0.490000
vt 0.796822 0.485388
vt 0.841844 0.471731
vt 0.883337 0.449553
vt 0.919706 0.419706
vt 0.949553 0.383337
vt 0.971731 0.341844
vt 0.985388 0.296822
vt 0.990000 0.250000
vt 0.985388 0.203178
vt 0.971731 0.158156
vt 0.949553 0.116663
vt 0.919706 0.080294
vt 0.883337 0.050447
vt 0.841844 0.028269
vt 0.796822 0.014612
vt 0.750000 0.010000
vt 0.703178 0.014612
vt 0.658156 0.028269
vt 0.616663 0.050447
vt 0.580294 0.080294
vt 0.550447 0.116663
vt 0.528269 0.158156
vt 0.514612 0.203178
vt 0.510000 0.250000
vt 0.514612 0.296822
vt 0.528269 0.341844
vt 0.550447 0.383337
vt 0.580294 0.419706
vt 0.616663 0.449553
vt 0.658156 0.471731
vt 0.703178 0.485388
vt 0.203178 0.485388
s 1
usemtl main_body
f 65/131/35 97/132/36 66/133/37
f 66/133/37 97/132/36 67/134/38
f 67/134/38 97/132/36 68/135/39
f 68/135/39 97/132/36 69/136/40
f 69/136/40 97/132/36 70/137/41
f 70/137/41 97/132/36 71/138/42
f 71/138/42 97/132/36 72/139/43
f 72/139/43 97/132/36 73/140/44
f 73/140/44 97/132/36 74/141/45
f 74/141/45 97/132/36 75/142/46
f 75/142/46 97/132/36 76/143/47
f 76/143/47 97/132/36 77/144/48
f 77/144/48 97/132/36 78/145/49
f 78/145/49 97/132/36 79/146/50
f 79/146/50 97/132/36 80/147/51
f 80/147/51 97/132/36 81/148/52
f 81/148/52 97/132/36 82/149/53
f 82/149/53 97/132/36 83/150/54
f 83/150/54 97/132/36 84/151/55
f 84/151/55 97/132/36 85/152/56
f 85/152/56 97/132/36 86/153/57
f 86/153/57 97/132/36 87/154/58
f 87/154/58 97/132/36 88/155/59
f 88/155/59 97/132/36 89/156/60
f 89/156/60 97/132/36 90/157/61
f 90/157/61 97/132/36 91/158/62
f 91/158/62 97/132/36 92/159/63
f 92/159/63 97/132/36 93/160/64
f 93/160/64 97/132/36 94/161/65
f 94/161/65 97/132/36 95/162/66
f 65/163/67 66/164/67 67/165/67 68/166/67 69/167/67 70/168/67 71/169/67 72/170/67 73/171/67 74/172/67 75/173/67 76/174/67 77/175/67 78/176/67 79/177/67 80/178/67 81/179/67 82/180/67 83/181/67 84/182/67 85/183/67 86/184/67 87/185/67 88/186/67 89/187/67 90/188/67 91/189/67 92/190/67 93/191/67 94/192/67 95/193/67 96/194/67
f 95/162/66 97/132/36 96/195/68
f 96/195/68 97/132/36 65/131/35
o Cone.001
v 0.000000 -0.350000 -1.500000
v 0.000000 -0.500000 -1.100000
v -0.068282 -0.343275 -1.500000
v -0.097545 -0.490393 -1.100000
v -0.133939 -0.323358 -1.500000
v -0.191342 -0.461940 -1.100000
v -0.194450 -0.291014 -1.500000
v -0.277785 -0.415735 -1.100000
v -0.247487 -0.247487 -1.500000
v -0.353553 -0.353553 -1.100000
v -0.291014 -0.194450 -1.500000
v -0.415735 -0.277785 -1.100000
v -0.323358 -0.133939 -1.500000
v -0.461940 -0.191342 -1.100000
v -0.343275 -0.068282 -1.500000
v -0.490393 -0.097545 -1.100000
v -0.350000 0.000000 -1.500000
v -0.500000 0.000000 -1.100000
v -0.343275 0.068282 -1.500000
v -0.490393 0.097545 -1.100000
v -0.323358 0.133939 -1.500000
v -0.461940 0.191342 -1.100000
v -0.291014 0.194450 -1.500000
v -0.415735 0.277785 -1.100000
v -0.247487 0.247487 -1.500000
v -0.353553 0.353553 -1.100000
v -0.194450 0.291014 -1.500000
v -0.277785 0.415735 -1.100000
v -0.133939 0.323358 -1.500000
v -0.191342 0.461940 -1.100000
v -0.068282 0.343275 -1.500000
v -0.097545 0.490393 -1.100000
v 0.000000 0.350000 -1.500000
v 0.000000 0.500000 -1.100000
v 0.068282 0.343275 -1.500000
v 0.097545 0.490393 -1.100000
v 0.133939 0.323358 -1.500000
v 0.191342 0.461940 -1.100000
v 0.194450 0.291014 -1.500000
v 0.277785 0.415735 -1.100000
v 0.247487 0.247487 -1.500000
v 0.353553 0.353553 -1.100000
v 0.291014 0.194450 -1.500000
v 0.415735 0.277785 -1.100000
v 0.323358 0.133939 -1.500000
v 0.461940 0.191342 -1.100000
v 0.343275 0.068282 -1.500000
v 0.490393 0.097545 -1.100000
v 0.350000 0.000000 -1.500000
v 0.500000 0.000000 -1.100000
v 0.343275 -0.068282 -1.500000
v 0.490393 -0.097545 -1.100000
v 0.323358 -0.133939 -1.500000
v 0.461940 -0.191342 -1.100000
v 0.291014 -0.194450 -1.500000
v 0.415735 -0.277785 -1.100000
v 0.247487 -0.247487 -1.500000
v 0.353553 -0.353553 -1.100000
v 0.194450 -0.291014 -1.500000
v 0.277785 -0.415735 -1.100000
v 0.133939 -0.323358 -1.500000
v 0.191342 -0.461940 -1.100000
v 0.068282 -0.343275 -1.500000
v 0.097545 -0.490393 -1.100000
vn -0.0000 -0.9363 -0.3511
vn -0.1827 -0.9183 -0.3511
vn -0.3583 -0.8651 -0.3511
vn -0.5202 -0.7785 -0.3511
vn -0.6621 -0.6621 -0.3511
vn -0.7785 -0.5202 -0.3511
vn -0.8651 -0.3583 -0.3511
vn -0.9183 -0.1827 -0.3511
vn -0.9363 -0.0000 -0.3511
vn -0.9183 0.1827 -0.3511
vn -0.8651 0.3583 -0.3511
vn -0.7785 0.5202 -0.3511
vn -0.6621 0.6621 -0.3511
vn -0.5202 0.7785 -0.3511
vn -0.3583 0.8651 -0.3511
vn -0.1827 0.9183 -0.3511
vn -0.0000 0.9363 -0.3511
vn 0.1827 0.9183 -0.3511
vn 0.3583 0.8651 -0.3511
vn 0.5202 0.7785 -0.3511
vn 0.6621 0.6621 -0.3511
vn 0.7785 0.5202 -0.3511
vn 0.8651 0.3583 -0.3511
vn 0.9183 0.1827 -0.3511
vn 0.9363 -0.0000 -0.3511
vn 0.9183 -0.1827 -0.3511
vn 0.8651 -0.3583 -0.3511
vn 0.7785 -0.5202 -0.3511
vn 0.6621 -0.6621 -0.3511
vn 0.5202 -0.7785 -0.3511
vn 0.3583 -0.8651 -0.3511
vn -0.0000 -0.0000 1.0000
vn 0.1827 -0.9183 -0.3511
vn -0.0000 -0.0000 -1.0000
vt 1.000000 0.500000
vt 1.000000 1.000000
vt 0.968750 1.000000
vt 0.968750 0.500000
vt 0.937500 1.000000
vt 0.937500 0.500000
vt 0.906250 1.000000
vt 0.906250 0.500000
vt 0.875000 1.000000
vt 0.875000 0.500000
vt 0.843750 1.000000
vt 0.843750 0.500000
vt 0.812500 1.000000
vt 0.812500 0.500000
vt 0.781250 1.000000
vt 0.781250 0.500000
vt 0.750000 1.000000
vt 0.750000 0.500000
vt 0.718750 1.000000
vt 0.718750 0.500000
vt 0.687500 1.000000
vt 0.687500 0.500000
vt 0.656250 1.000000
vt 0.656250 0.500000
vt 0.625000 1.000000
vt 0.625000 0.500000
vt 0.593750 1.000000
vt 0.593750 0.500000
vt 0.562500 1.000000
vt 0.562500 0.500000
vt 0.531250 1.000000
vt 0.531250 0.500000
vt 0.500000 1.000000
vt 0.500000 0.500000
vt 0.468750 1.000000
vt 0.468750 0.500000
vt 0.437500 1.000000
vt 0.437500 0.500000
vt 0.406250 1.000000
vt 0.406250 0.500000
vt 0.375000 1.000000
vt 0.375000 0.500000
vt 0.343750 1.000000
vt 0.343750 0.500000
vt 0.312500 1.000000
vt 0.312500 0.500000
vt 0.281250 1.000000
vt 0.281250 0.500000
vt 0.250000 1.000000
vt 0.250000 0.500000
vt 0.218750 1.000000
vt 0.218750 0.500000
vt 0.187500 1.000000
vt 0.187500 0.500000
vt 0.156250 1.000000
vt 0.156250 0.500000
vt 0.125000 1.000000
vt 0.125000 0.500000
vt 0.093750 1.000000
vt 0.093750 0.500000
vt 0.062500 1.000000
vt 0.062500 0.500000
vt 0.296822 0.485388
vt 0.250000 0.490000
vt 0.203178 0.485388
vt 0.158156 0.471731
vt 0.116663 0.449553
vt 0.080294 0.419706
vt 0.050447 0.383337
vt 0.028269 0.341844
vt 0.014612 0.296822
vt 0.010000 0.250000
vt 0.014612 0.203178
vt 0.028269 0.158156
vt 0.050447 0.116663
vt 0.080294 0.080294
vt 0.116663 0.050447
vt 0.158156 0.028269
vt 0.203178 0.014612
vt 0.250000 0.010000
vt 0.296822 0.014612
vt 0.341844 0.028269
vt 0.383337 0.050447
vt 0.419706 0.080294
vt 0.449553 0.116663
vt 0.471731 0.158156
vt 0.485388 0.203178
vt 0.490000 0.250000
vt 0.485388 0.296822
vt 0.471731 0.341844
vt 0.449553 0.383337
vt 0.419706 0.419706
vt 0.383337 0.449553
vt 0.341844 0.471731
vt 0.031250 1.000000
vt 0.031250 0.500000
vt 0.000000 1.000000
vt 0.000000 0.500000
vt 0.750000 0.490000
vt 0.796822 0.485388
vt 0.841844 0.471731
vt 0.883337 0.449553
vt 0.919706 0.419706
vt 0.949553 0.383337
vt 0.971731 0.341844
vt 0.985388 0.296822
vt 0.990000 0.250000
vt 0.985388 0.203178
vt 0.971731 0.158156
vt 0.949553 0.116663
vt 0.919706 0.080294
vt 0.883337 0.050447
vt 0.841844 0.028269
vt 0.796822 0.014612
vt 0.750000 0.010000
vt 0.703178 0.014612
vt 0.658156 0.028269
vt 0.616663 0.050447
vt 0.580294 0.080294
vt 0.550447 0.116663
vt 0.528269 0.158156
vt 0.514612 0.203178
vt 0.510000 0.250000
vt 0.514612 0.296822
vt 0.528269 0.341844
vt 0.550447 0.383337
vt 0.580294 0.419706
vt 0.616663 0.449553
vt 0.658156 0.471731
vt 0.703178 0.485388
s 1
usemtl nozzle
f 98/196/69 99/197/69 101/198/70 100/199/70
f 100/199/70 101/198/70 103/200/71 102/201/71
f 102/201/71 103/200/71 105/202/72 104/203/72
f 104/203/72 105/202/72 107/204/73 106/205/73
f 106/205/73 107/204/73 109/206/74 108/207/74
f 108/207/74 109/206/74 111/208/75 110/209/75
f 110/209/75 111/208/75 113/210/76 112/211/76
f 112/211/76 113/210/76 115/212/77 114/213/77
f 114/213/77 115/212/77 117/214/78 116/215/78
f 116/215/78 117/214/78 119/216/79 118/217/79
f 118/217/79 119/216/79 121/218/80 120/219/80
f 120/219/80 121/218/80 123/220/81 122/221/81
f 122/221/81 123/220/81 125/222/82 124/223/82
f 124/223/82 125/222/82 127/224/83 126/225/83
f 126/225/83 127/224/83 129/226/84 128/227/84
f 128/227/84 129/226/84 131/228/85 130/229/85
f 130/229/85 131/228/85 133/230/86 132/231/86
f 132/231/86 133/230/86 135/232/87 134/233/87
f 134/233/87 135/232/87 137/234/88 136/235/88
f 136/235/88 137/234/88 139/236/89 138/237/89
f 138/237/89 139/236/89 141/238/90 140/239/90
f 140/239/90 141/238/90 143/240/91 142/241/91
f 142/241/91 143/240/91 145/242/92 144/243/92
f 144/243/92 145/242/92 147/244/93 146/245/93
f 146/245/93 147/244/93 149/246/94 148/247/94
f 148/247/94 149/246/94 151/248/95 150/249/95
f 150/249/95 151/248/95 153/250/96 152/251/96
f 152/251/96 153/250/96 155/252/97 154/253/97
f 154/253/97 155/252/97 157/254/98 156/255/98
f 156/255/98 157/254/98 159/256/99 158/257/99
f 101/258/100 99/259/100 161/260/100 159/261/100 157/262/100 155/263/100 153/264/100 151/265/100 149/266/100 147/267/100 145/268/100 143/269/100 141/270/100 139/271/100 137/272/100 135/273/100 133/274/100 131/275/100 129/276/100 127/277/100 125/278/100 123/279/100 121/280/100 119/281/100 117/282/100 115/283/100 113/284/100 111/285/100 109/286/100 107/287/100 105/288/100 103/289/100
f 158/257/99 159/256/99 161/290/101 160/291/101
f 160/291/101 161/290/101 99/292/69 98/293/69
f 98/294/102 100/295/102 102/296/102 104/297/102 106/298/102 108/299/102 110/300/102 112/301/102 114/302/102 116/303/102 118/304/102 120/305/102 122/306/102 124/307/102 126/308/102 128/309/102 130/310/102 132/311/102 134/312/102 136/313/102 138/314/102 140/315/102 142/316/102 144/317/102 146/318/102 148/319/102 150/320/102 152/321/102 154/322/102 156/323/102 158/324/102 160/325/102
o Plane
v -0.500000 -0.000000 -1.100000
v -0.900000 -0.000000 -1.100000
v -0.500000 0.000000 0.100000
v -0.900000 0.000000 -0.500000
v -0.500000 -0.020000 -1.100000
v -0.900000 -0.020000 -1.100000
v -0.500000 -0.020000 0.100000
v -0.900000 -0.020000 -0.500000
vn -0.0000 1.0000 -0.0000
vn -0.0000 -1.0000 -0.0000
vn 1.0000 -0.0000 -0.0000
vn -0.0000 -0.0000 -1.0000
vn -1.0000 -0.0000 -0.0000
vn -0.8321 -0.0000 0.5547
vt 0.000000 0.000000
vt 1.000000 0.000000
vt 1.000000 1.000000
vt 0.000000 1.000000
s 1
usemtl fins
f 162/326/103 163/327/103 165/328/103 164/329/103
f 166/326/104 168/329/104 169/328/104 167/327/104
f 162/326/105 164/329/105 168/329/105 166/326/105
f 163/327/106 162/326/106 166/326/106 167/327/106
f 165/328/107 163/327/107 167/327/107 169/328/107
f 164/329/108 165/328/108 169/328/108 168/329/108
o Plane.002
v 0.000000 -0.500000 -1.100000
v 0.000000 -0.900000 -1.100000
v -0.000000 -0.500000 0.100000
v -0.000000 -0.900000 -0.500000
v 0.020000 -0.500000 -1.100000
v 0.020000 -0.900000 -1.100000
v 0.020000 -0.500000 0.100000
v 0.020000 -0.900000 -0.500000
vn -1.0000 -0.0000 -0.0000
vn 1.0000 -0.0000 -0.0000
vn -0.0000 1.0000 -0.0000
vn -0.0000 -0.0000 -1.0000
vn -0.0000 -1.0000 -0.0000
vn -0.0000 -0.8321 0.5547
vt 0.000000 0.000000
vt 1.000000 0.000000
vt 1.000000 1.000000
vt 0.000000 1.000000
s 1
usemtl fins
f 170/330/109 171/331/109 173/332/109 172/333/109
f 174/330/110 176/333/110 177/332/110 175/331/110
f 170/330/111 172/333/111 176/333/111 174/330/111
f 171/331/112 170/330/112 174/330/112 175/331/112
f 173/332/113 171/331/113 175/331/113 177/332/113
f 172/333/114 173/332/114 177/332/114 176/333/114
o Plane.003
v 0.500000 -0.000000 -1.100000
v 0.900000 0.000000 -1.100000
v 0.500000 -0.000000 0.100000
v 0.900000 0.000000 -0.500000
v 0.500000 0.020000 -1.100000
v 0.900000 0.020000 -1.100000
v 0.500000 0.020000 0.100000
v 0.900000 0.020000 -0.500000
vn -0.0000 -1.0000 -0.0000
vn -0.0000 1.0000 -0.0000
vn -1.0000 -0.0000 -0.0000
vn -0.0000 -0.0000 -1.0000
vn 1.0000 -0.0000 -0.0000
vn 0.8321 -0.0000 0.5547
vt 0.000000 0.000000
vt 1.000000 0.000000
vt 1.000000 1.000000
vt 0.000000 1.000000
s 1
usemtl fins
f 178/334/115 179/335/115 181/336/115 180/337/115
f 182/334/116 184/337/116 185/336/116 183/335/116
f 178/334/117 180/337/117 184/337/117 182/334/117
f 179/335/118 178/334/118 182/334/118 183/335/118
f 181/336/119 179/335/119 183/335/119 185/336/119
f 180/337/120 181/336/120 185/336/120 184/337/120
o Plane.004
v 0.000000 0.500000 -1.100000
v -0.000000 0.900000 -1.100000
v 0.000000 0.500000 0.100000
v -0.000000 0.900000 -0.500000
v -0.020000 0.500000 -1.100000
v -0.020000 0.900000 -1.100000
v -0.020000 0.500000 0.100000
v -0.020000 0.900000 -0.500000
vn 1.0000 -0.0000 -0.0000
vn -1.0000 -0.0000 -0.0000
vn -0.0000 -1.0000 -0.0000
vn -0.0000 -0.0000 -1.0000
vn -0.0000 1.0000 -0.0000
vn -0.0000 0.8321 0.5547
vt 0.000000 0.000000
vt 1.000000 0.000000
vt 1.000000 1.000000
vt 0.000000 1.000000
s 1
usemtl fins
f 186/338/121 187/339/121 189/340/121 188/341/121
f 190/338/122 192/341/122 193/340/122 191/339/122
f 186/338/123 188/341/123 192/341/123 190/338/123
f 187/339/124 186/338/124 190/338/124 191/339/124
f 189/340/125 187/339/125 191/339/125 193/340/125
f 188/341/126 189/340/126 193/340/126 192/341/126
o Cylinder.001
v 0.000000 -0.520000 0.475000
v 0.000000 -0.520000 0.525000
v -0.101447 -0.510008 0.475000
v -0.101447 -0.510008 0.525000
v -0.198995 -0.480417 0.475000
v -0.198995 -0.480417 0.525000
v -0.288897 -0.432364 0.475000
v -0.288897 -0.432364 0.525000
v -0.367696 -0.367696 0.475000
v -0.367696 -0.367696 0.525000
v -0.432364 -0.288897 0.475000
v -0.432364 -0.288897 0.525000
v -0.480417 -0.198995 0.475000
v -0.480417 -0.198995 0.525000
v -0.510008 -0.101447 0.475000
v -0.510008 -0.101447 0.525000
v -0.520000 0.000000 0.475000
v -0.520000 0.000000 0.525000
v -0.510008 0.101447 0.475000
v -0.510008 0.101447 0.525000
v -0.480417 0.198995 0.475000
v -0.480417 0.198995 0.525000
v -0.432364 0.288897 0.475000
v -0.432364 0.288897 0.525000
v -0.367696 0.367696 0.475000
v -0.367696 0.367696 0.525000
v -0.288897 0.432364 0.475000
v -0.288897 0.432364 0.525000
v -0.198995 0.480417 0.475000
v -0.198995 0.480417 0.525000
v -0.101447 0.510008 0.475000
v -0.101447 0.510008 0.525000
v 0.000000 0.520000 0.475000
v 0.000000 0.520000 0.525000
v 0.101447 0.510008 0.475000
v 0.101447 0.510008 0.525000
v 0.198995 0.480417 0.475000
v 0.198995 0.480417 0.525000
v 0.288897 0.432364 0.475000
v 0.288897 0.432364 0.525000
v 0.367696 0.367696 0.475000
v 0.367696 0.367696 0.525000
v 0.432364 0.288897 0.475000
v 0.432364 0.288897 0.525000
v 0.480417 0.198995 0.475000
v 0.480417 0.198995 0.525000
v 0.510008 0.101447 0.475000
v 0.510008 0.101447 0.525000
v 0.520000 0.000000 0.475000
v 0.520000 0.000000 0.525000
v 0.510008 -0.101447 0.475000
v 0.510008 -0.101447 0.525000
v 0.480417 -0.198995 0.475000
v 0.480417 -0.198995 0.525000
v 0.432364 -0.288897 0.475000
v 0.432364 -0.288897 0.525000
v 0.367696 -0.367696 0.475000
v 0.367696 -0.367696 0.525000
v 0.288897 -0.432364 0.475000
v 0.288897 -0.432364 0.525000
v 0.198995 -0.480417 0.475000
v 0.198995 -0.480417 0.525000
v 0.101447 -0.510008 0.475000
v 0.101447 -0.510008 0.525000
vn -0.0980 -0.9952 -0.0000
vn -0.2903 -0.9569 -0.0000
vn -0.4714 -0.8819 -0.0000
vn -0.6344 -0.7730 -0.0000
vn -0.7730 -0.6344 -0.0000
vn -0.8819 -0.4714 -0.0000
vn -0.9569 -0.2903 -0.0000
vn -0.9952 -0.0980 -0.0000
vn -0.9952 0.0980 -0.0000
vn -0.9569 0.2903 -0.0000
vn -0.8819 0.4714 -0.0000
vn -0.7730 0.6344 -0.0000
vn -0.6344 0.7730 -0.0000
vn -0.4714 0.8819 -0.0000
vn -0.2903 0.9569 -0.0000
vn -0.0980 0.9952 -0.0000
vn 0.0980 0.9952 -0.0000
vn 0.2903 0.9569 -0.0000
vn 0.4714 0.8819 -0.0000
vn 0.6344 0.7730 -0.0000
vn 0.7730 0.6344 -0.0000
vn 0.8819 0.4714 -0.0000
vn 0.9569 0.2903 -0.0000
vn 0.9952 0.0980 -0.0000
vn 0.9952 -0.0980 -0.0000
vn 0.9569 -0.2903 -0.0000
vn 0.8819 -0.4714 -0.0000
vn 0.7730 -0.6344 -0.0000
vn 0.6344 -0.7730 -0.0000
vn 0.4714 -0.8819 -0.0000
vn -0.0000 -0.0000 1.0000
vn 0.2903 -0.9569 -0.0000
vn 0.0980 -0.9952 -0.0000
vn -0.0000 -0.0000 -1.0000
vt 1.000000 0.500000
vt 1.000000 1.000000
vt 0.968750 1.000000
vt 0.968750 0.500000
vt 0.937500 1.000000
vt 0.937500 0.500000
vt 0.906250 1.000000
vt 0.906250 0.500000
vt 0.875000 1.000000
vt 0.875000 0.500000
vt 0.843750 1.000000
vt 0.843750 0.500000
vt 0.812500 1.000000
vt 0.812500 0.500000
vt 0.781250 1.000000
vt 0.781250 0.500000
vt 0.750000 1.000000
vt 0.750000 0.500000
vt 0.718750 1.000000
vt 0.718750 0.500000
vt 0.687500 1.000000
vt 0.687500 0.500000
vt 0.656250 1.000000
vt 0.656250 0.500000
vt 0.625000 1.000000
vt 0.625000 0.500000
vt 0.593750 1.000000
vt 0.593750 0.500000
vt 0.562500 1.000000
vt 0.562500 0.500000
vt 0.531250 1.000000
vt 0.531250 0.500000
vt 0.500000 1.000000
vt 0.500000 0.500000
vt 0.468750 1.000000
vt 0.468750 0.500000
vt 0.437500 1.000000
vt 0.437500 0.500000
vt 0.406250 1.000000
vt 0.406250 0.500000
vt 0.375000 1.000000
vt 0.375000 0.500000
vt 0.343750 1.000000
vt 0.343750 0.500000
vt 0.312500 1.000000
vt 0.312500 0.500000
vt 0.281250 1.000000
vt 0.281250 0.500000
vt 0.250000 1.000000
vt 0.250000 0.500000
vt 0.218750 1.000000
vt 0.218750 0.500000
vt 0.187500 1.000000
vt 0.187500 0.500000
vt 0.156250 1.000000
vt 0.156250 0.500000
vt 0.125000 1.000000
vt 0.125000 0.500000
vt 0.093750 1.000000
vt 0.093750 0.500000
vt 0.062500 1.000000
vt 0.062500 0.500000
vt 0.296822 0.485388
vt 0.250000 0.490000
vt 0.203178 0.485388
vt 0.158156 0.471731
vt 0.116663 0.449553
vt 0.080294 0.419706
vt 0.050447 0.383337
vt 0.028269 0.341844
vt 0.014612 0.296822
vt 0.010000 0.250000
vt 0.014612 0.203178
vt 0.028269 0.158156
vt 0.050447 0.116663
vt 0.080294 0.080294
vt 0.116663 0.050447
vt 0.158156 0.028269
vt 0.203178 0.014612
vt 0.250000 0.010000
vt 0.296822 0.014612
vt 0.341844 0.028269
vt 0.383337 0.050447
vt 0.419706 0.080294
vt 0.449553 0.116663
vt 0.471731 0.158156
vt 0.485388 0.203178
vt 0.490000 0.250000
vt 0.485388 0.296822
vt 0.471731 0.341844
vt 0.449553 0.383337
vt 0.419706 0.419706
vt 0.383337 0.449553
vt 0.341844 0.471731
vt 0.031250 1.000000
vt 0.031250 0.500000
vt 0.000000 1.000000
vt 0.000000 0.500000
vt 0.750000 0.490000
vt 0.796822 0.485388
vt 0.841844 0.471731
vt 0.883337 0.449553
vt 0.919706 0.419706
vt 0.949553 0.383337
vt 0.971731 0.341844
vt 0.985388 0.296822
vt 0.990000 0.250000
vt 0.985388 0.203178
vt 0.971731 0.158156
vt 0.949553 0.116663
vt 0.919706 0.080294
vt 0.883337 0.050447
vt 0.841844 0.028269
vt 0.796822 0.014612
vt 0.750000 0.010000
vt 0.703178 0.014612
vt 0.658156 0.028269
vt 0.616663 0.050447
vt 0.580294 0.080294
vt 0.550447 0.116663
vt 0.528269 0.158156
vt 0.514612 0.203178
vt 0.510000 0.250000
vt 0.514612 0.296822
vt 0.528269 0.341844
vt 0.550447 0.383337
vt 0.580294 0.419706
vt 0.616663 0.449553
vt 0.658156 0.471731
vt 0.703178 0.485388
s 0
usemtl nozzle
f 194/342/127 195/343/127 197/344/127 196/345/127
f 196/345/128 197/344/128 199/346/128 198/347/128
f 198/347/129 199/346/129 201/348/129 200/349/129
f 200/349/130 201/348/130 203/350/130 202/351/130
f 202/351/131 203/350/131 205/352/131 204/353/131
f 204/353/132 205/352/132 207/354/132 206/355/132
f 206/355/133 207/354/133 209/356/133 208/357/133
f 208/357/134 209/356/134 211/358/134 210/359/134
f 210/359/135 211/358/135 213/360/135 212/361/135
f 212/361/136 213/360/136 215/362/136 214/363/136
f 214/363/137 215/362/137 217/364/137 216/365/137
f 216/365/138 217/364/138 219/366/138 218/367/138
f 218/367/139 219/366/139 221/368/139 220/369/139
f 220/369/140 221/368/140 223/370/140 222/371/140
f 222/371/141 223/370/141 225/372/141 224/373/141
f 224/373/142 225/372/142 227/374/142 226/375/142
f 226/375/143 227/374/143 229/376/143 228/377/143
f 228/377/144 229/376/144 231/378/144 230/379/144
f 230/379/145 231/378/145 233/380/145 232/381/145
f 232/381/146 233/380/146 235/382/146 234/383/146
f 234/383/147 235/382/147 237/384/147 236/385/147
f 236/385/148 237/384/148 239/386/148 238/387/148
f 238/387/149 239/386/149 241/388/149 240/389/149
f 240/389/150 241/388/150 243/390/150 242/391/150
f 242/391/151 243/390/151 245/392/151 244/393/151
f 244/393/152 245/392/152 247/394/152 246/395/152
f 246/395/153 247/394/153 249/396/153 248/397/153
f 248/397/154 249/396/154 251/398/154 250/399/154
f 250/399/155 251/398/155 253/400/155 252/401/155
f 252/401/156 253/400/156 255/402/156 254/403/156
f 197/404/157 195/405/157 257/406/157 255/407/157 253/408/157 251/409/157 249/410/157 247/411/157 245/412/157 243/413/157 241/414/157 239/415/157 237/416/157 235/417/157 233/418/157 231/419/157 229/420/157 227/421/157 225/422/157 223/423/157 221/424/157 219/425/157 217/426/157 215/427/157 213/428/157 211/429/157 209/430/157 207/431/157 205/432/157 203/433/157 201/434/157 199/435/157
f 254/403/158 255/402/158 257/436/158 256/437/158
f 256/437/159 257/436/159 195/438/159 194/439/159
f 194/440/160 196/441/160 198/442/160 200/443/160 202/444/160 204/445/160 206/446/160 208/447/160 210/448/160 212/449/160 214/450/160 216/451/160 218/452/160 220/453/160 222/454/160 224/455/160 226/456/160 228/457/160 230/458/160 232/459/160 234/460/160 236/461/160 238/462/160 240/463/160 242/464/160 244/465/160 246/466/160 248/467/160 250/468/160 252/469/160 254/470/160 256/471/160
o Cylinder.002
v 0.000000 -0.520000 0.971754
v 0.000000 -0.520000 1.021754
v -0.101447 -0.510008 0.971754
v -0.101447 -0.510008 1.021754
v -0.198995 -0.480417 0.971754
v -0.198995 -0.480417 1.021754
v -0.288897 -0.432364 0.971754
v -0.288897 -0.432364 1.021754
v -0.367696 -0.367696 0.971754
v -0.367696 -0.367696 1.021754
v -0.432364 -0.288897 0.971754
v -0.432364 -0.288897 1.021754
v -0.480417 -0.198995 0.971754
v -0.480417 -0.198995 1.021754
v -0.510008 -0.101447 0.971754
v -0.510008 -0.101447 1.021754
v -0.520000 0.000000 0.971754
v -0.520000 0.000000 1.021754
v -0.510008 0.101447 0.971754
v -0.510008 0.101447 1.021754
v -0.480417 0.198995 0.971754
v -0.480417 0.198995 1.021754
v -0.432364 0.288897 0.971754
v -0.432364 0.288897 1.021754
v -0.367696 0.367696 0.971754
v -0.367696 0.367696 1.021754
v -0.288897 0.432364 0.971754
v -0.288897 0.432364 1.021754
v -0.198995 0.480417 0.971754
v -0.198995 0.480417 1.021754
v -0.101447 0.510008 0.971754
v -0.101447 0.510008 1.021754
v 0.000000 0.520000 0.971754
v 0.000000 0.520000 1.021754
v 0.101447 0.510008 0.971754
v 0.101447 0.510008 1.021754
v 0.198995 0.480417 0.971754
v 0.198995 0.480417 1.021754
v 0.288897 0.432364 0.971754
v 0.288897 0.432364 1.021754
v 0.367696 0.367696 0.971754
v 0.367696 0.367696 1.021754
v 0.432364 0.288897 0.971754
v 0.432364 0.288897 1.021754
v 0.480417 0.198995 0.971754
v 0.480417 0.198995 1.021754
v 0.510008 0.101447 0.971754
v 0.510008 0.101447 1.021754
v 0.520000 0.000000 0.971754
v 0.520000 0.000000 1.021754
v 0.510008 -0.101447 0.971754
v 0.510008 -0.101447 1.021754
v 0.480417 -0.198995 0.971754
v 0.480417 -0.198995 1.021754
v 0.432364 -0.288897 0.971754
v 0.432364 -0.288897 1.021754
v 0.367696 -0.367696 0.971754
v 0.367696 -0.367696 1.021754
v 0.288897 -0.432364 0.971754
v 0.288897 -0.432364 1.021754
v 0.198995 -0.480417 0.971754
v 0.198995 -0.480417 1.021754
v 0.101447 -0.510008 0.971754
v 0.101447 -0.510008 1.021754
vn -0.0980 -0.9952 -0.0000
vn -0.2903 -0.9569 -0.0000
vn -0.4714 -0.8819 -0.0000
vn -0.6344 -0.7730 -0.0000
vn -0.7730 -0.6344 -0.0000
vn -0.8819 -0.4714 -0.0000
vn -0.9569 -0.2903 -0.0000
vn -0.9952 -0.0980 -0.0000
vn -0.9952 0.0980 -0.0000
vn -0.9569 0.2903 -0.0000
vn -0.8819 0.4714 -0.0000
vn -0.7730 0.6344 -0.0000
vn -0.6344 0.7730 -0.0000
vn -0.4714 0.8819 -0.0000
vn -0.2903 0.9569 -0.0000
vn -0.0980 0.9952 -0.0000
vn 0.0980 0.9952 -0.0000
vn 0.2903 0.9569 -0.0000
vn 0.4714 0.8819 -0.0000
vn 0.6344 0.7730 -0.0000
vn 0.7730 0.6344 -0.0000
vn 0.8819 0.4714 -0.0000
vn 0.9569 0.2903 -0.0000
vn 0.9952 0.0980 -0.0000
vn 0.9952 -0.0980 -0.0000
vn 0.9569 -0.2903 -0.0000
vn 0.8819 -0.4714 -0.0000
vn 0.7730 -0.6344 -0.0000
vn 0.6344 -0.7730 -0.0000
vn 0.4714 -0.8819 -0.0000
vn -0.0000 -0.0000 1.0000
vn 0.2903 -0.9569 -0.0000
vn 0.0980 -0.9952 -0.0000
vn -0.0000 -0.0000 -1.0000
vt 1.000000 0.500000
vt 1.000000 1.000000
vt 0.968750 1.000000
vt 0.968750 0.500000
vt 0.937500 1.000000
vt 0.937500 0.500000
vt 0.906250 1.000000
vt 0.906250 0.500000
vt 0.875000 1.000000
vt 0.875000 0.500000
vt 0.843750 1.000000
vt 0.843750 0.500000
vt 0.812500 1.000000
vt 0.812500 0.500000
vt 0.781250 1.000000
vt 0.781250 0.500000
vt 0.750000 1.000000
vt 0.750000 0.500000
vt 0.718750 1.000000
vt 0.718750 0.500000
vt 0.687500 1.000000
vt 0.687500 0.500000
vt 0.656250 1.000000
vt 0.656250 0.500000
vt 0.625000 1.000000
vt 0.625000 0.500000
vt 0.593750 1.000000
vt 0.593750 0.500000
vt 0.562500 1.000000
vt 0.562500 0.500000
vt 0.531250 1.000000
vt 0.531250 0.500000
vt 0.500000 1.000000
vt 0.500000 0.500000
vt 0.468750 1.000000
vt 0.468750 0.500000
vt 0.437500 1.000000
vt 0.437500 0.500000
vt 0.406250 1.000000
vt 0.406250 0.500000
vt 0.375000 1.000000
vt 0.375000 0.500000
vt 0.343750 1.000000
vt 0.343750 0.500000
vt 0.312500 1.000000
vt 0.312500 0.500000
vt 0.281250 1.000000
vt 0.281250 0.500000
vt 0.250000 1.000000
vt 0.250000 0.500000
vt 0.218750 1.000000
vt 0.218750 0.500000
vt 0.187500 1.000000
vt 0.187500 0.500000
vt 0.156250 1.000000
vt 0.156250 0.500000
vt 0.125000 1.000000
vt 0.125000 0.500000
vt 0.093750 1.000000
vt 0.093750 0.500000
vt 0.062500 1.000000
vt 0.062500 0.500000
vt 0.296822 0.485388
vt 0.250000 0.490000
vt 0.203178 0.485388
vt 0.158156 0.471731
vt 0.116663 0.449553
vt 0.080294 0.419706
vt 0.050447 0.383337
vt 0.028269 0.341844
vt 0.014612 0.296822
vt 0.010000 0.250000
vt 0.014612 0.203178
vt 0.028269 0.158156
vt 0.050447 0.116663
vt 0.080294 0.080294
vt 0.116663 0.050447
vt 0.158156 0.028269
vt 0.203178 0.014612
vt 0.250000 0.010000
vt 0.296822 0.014612
vt 0.341844 0.028269
vt 0.383337 0.050447
vt 0.419706 0.080294
vt 0.449553 0.116663
vt 0.471731 0.158156
vt 0.485388 0.203178
vt 0.490000 0.250000
vt 0.485388 0.296822
vt 0.471731 0.341844
vt 0.449553 0.383337
vt 0.419706 0.419706
vt 0.383337 0.449553
vt 0.341844 0.471731
vt 0.031250 1.000000
vt 0.031250 0.500000
vt 0.000000 1.000000
vt 0.000000 0.500000
vt 0.750000 0.490000
vt 0.796822 0.485388
vt 0.841844 0.471731
vt 0.883337 0.449553
vt 0.919706 0.419706
vt 0.949553 0.383337
vt 0.971731 0.341844
vt 0.985388 0.296822
vt 0.990000 0.250000
vt 0.985388 0.203178
vt 0.971731 0.158156
vt 0.949553 0.116663
vt 0.919706 0.080294
vt 0.883337 0.050447
vt 0.841844 0.028269
vt 0.796822 0.014612
vt 0.750000 0.010000
vt 0.703178 0.014612
vt 0.658156 0.028269
vt 0.616663 0.050447
vt 0.580294 0.080294
vt 0.550447 0.116663
vt 0.528269 0.158156
vt 0.514612 0.203178
vt 0.510000 0.250000
vt 0.514612 0.296822
vt 0.528269 0.341844
vt 0.550447 0.383337
vt 0.580294 0.419706
vt 0.616663 0.449553
vt 0.658156 0.471731
vt 0.703178 0.485388
s 0
usemtl nozzle
f 258/472/161 259/473/161 261/474/161 260/475/161
f 260/475/162 261/474/162 263/476/162 262/477/162
f 262/477/163 263/476/163 265/478/163 264/479/163
f 264/479/164 265/478/164 267/480/164 266/481/164
f 266/481/165 267/480/165 269/482/165 268/483/165
f 268/483/166 269/482/166 271/484/166 270/485/166
f 270/485/167 271/484/167 273/486/167 272/487/167
f 272/487/168 273/486/168 275/488/168 274/489/168
f 274/489/169 275/488/169 277/490/169 276/491/169
f 276/491/170 277/490/170 279/492/170 278/493/170
f 278/493/171 279/492/171 281/494/171 280/495/171
f 280/495/172 281/494/172 283/496/172 282/497/172
f 282/497/173 283/496/173 285/498/173 284/499/173
f 284/499/174 285/498/174 287/500/174 286/501/174
f 286/501/175 287/500/175 289/502/175 288/503/175
f 288/503/176 289/502/176 291/504/176 290/505/176
f 290/505/177 291/504/177 293/506/177 292/507/177
f 292/507/178 293/506/178 295/508/178 294/509/178
f 294/509/179 295/508/179 297/510/179 296/511/179
f 296/511/180 297/510/180 299/512/180 298/513/180
f 298/513/181 299/512/181 301/514/181 300/515/181
f 300/515/182 301/514/182 303/516/182 302/517/182
f 302/517/183 303/516/183 305/518/183 304/519/183
f 304/519/184 305/518/184 307/520/184 306/521/184
f 306/521/185 307/520/185 309/522/185 308/523/185
f 308/523/186 309/522/186 311/524/186 310/525/186
f 310/525/187 311/524/187 313/526/187 312/527/187
f 312/527/188 313/526/188 315/528/188 314/529/188
f 314/529/189 315/528/189 317/530/189 316/531/189
f 316/531/190 317/530/190 319/532/190 318/533/190
f 261/534/191 259/535/191 321/536/191 319/537/191 317/538/191 315/539/191 313/540/191 311/541/191 309/542/191 307/543/191 305/544/191 303/545/191 301/546/191 299/547/191 297/548/191 295/549/191 293/550/191 291/551/191 289/552/191 287/553/191 285/554/191 283/555/191 281/556/191 279/557/191 277/558/191 275/559/191 273/560/191 271/561/191 269/562/191 267/563/191 265/564/191 263/565/191
f 318/533/192 319/532/192 321/566/192 320/567/192
f 320/567/193 321/566/193 259/568/193 258/569/193
f 258/570/194 260/571/194 262/572/194 264/573/194 266/574/194 268/575/194 270/576/194 272/577/194 274/578/194 276/579/194 278/580/194 280/581/194 282/582/194 284/583/194 286/584/194 288/585/194 290/586/194 292/587/194 294/588/194 296/589/194 298/590/194 300/591/194 302/592/194 304/593/194 306/594/194 308/595/194 310/596/194 312/597/194 314/598/194 316/599/194 318/600/194 320/601/194
