# split by material: fins
mtllib rocket_booster_visual.mtl
v 0.000000 -0.500000 -1.100000
v 0.000000 -0.500000 1.100000
v -0.097545 -0.490393 -1.100000
v -0.097545 -0.490393 1.100000
v -0.191342 -0.461940 -1.100000
v -0.191342 -0.461940 1.100000
v -0.277785 -0.415735 -1.100000
v -0.277785 -0.415735 1.100000
v -0.353553 -0.353553 -1.100000
v -0.353553 -0.353553 1.100000
v -0.415735 -0.277785 -1.100000
v -0.415735 -0.277785 1.100000
v -0.461940 -0.191342 -1.100000
v -0.461940 -0.191342 1.100000
v -0.490393 -0.097545 -1.100000
v -0.490393 -0.097545 1.100000
v -0.500000 0.000000 -1.100000
v -0.500000 0.000000 1.100000
v -0.490393 0.097545 -1.100000
v -0.490393 0.097545 1.100000
v -0.461940 0.191342 -1.100000
v -0.461940 0.191342 1.100000
v -0.415735 0.277785 -1.100000
v -0.415735 0.277785 1.100000
v -0.353553 0.353553 -1.100000
v -0.353553 0.353553 1.100000
v -0.277785 0.415735 -1.100000
v -0.277785 0.415735 1.100000
v -0.191342 0.461940 -1.100000
v -0.191342 0.461940 1.100000
v -0.097545 0.490393 -1.100000
v -0.097545 0.490393 1.100000
v 0.000000 0.500000 -1.100000
v 0.000000 0.500000 1.100000
v 0.097545 0.490393 -1.100000
v 0.097545 0.490393 1.100000
v 0.191342 0.461940 -1.100000
v 0.191342 0.461940 1.100000
v 0.277785 0.415735 -1.100000
v 0.277785 0.415735 1.100000
v 0.353553 0.353553 -1.100000
v 0.353553 0.353553 1.100000
v 0.415735 0.277785 -1.100000
v 0.415735 0.277785 1.100000
v 0.461940 0.191342 -1.100000
v 0.461940 0.191342 1.100000
v 0.490393 0.097545 -1.100000
v 0.490393 0.097545 1.100000
v 0.500000 0.000000 -1.100000
v 0.500000 0.000000 1.100000
v 0.490393 -0.097545 -1.100000
v 0.490393 -0.097545 1.100000
v 0.461940 -0.191342 -1.100000
v 0.461940 -0.191342 1.100000
v 0.415735 -0.277785 -1.100000
v 0.415735 -0.277785 1.100000
v 0.353553 -0.353553 -1.100000
v 0.353553 -0.353553 1.100000
v 0.277785 -0.415735 -1.100000
v 0.277785 -0.415735 1.100000
v 0.191342 -0.461940 -1.100000
v 0.191342 -0.461940 1.100000
v 0.097545 -0.490393 -1.100000
v 0.097545 -0.490393 1.100000
v 0.000000 -0.500000 1.100000
v -0.097545 -0.490393 1.100000
v -0.191342 -0.461940 1.100000
v -0.277785 -0.415735 1.100000
v -0.353553 -0.353553 1.100000
v -0.415735 -0.277785 1.100000
v -0.461940 -0.191342 1.100000
v -0.490393 -0.097545 1.100000
v -0.500000 0.000000 1.100000
v -0.490393 0.097545 1.100000
v -0.461940 0.191342 1.100000
v -0.415735 0.277785 1.100000
v -0.353553 0.353553 1.100000
v -0.277785 0.415735 1.100000
v -0.191342 0.461940 1.100000
v -0.097545 0.490393 1.100000
v 0.000000 0.500000 1.100000
v 0.097545 0.490393 1.100000
v 0.191342 0.461940 1.100000
v 0.277785 0.415735 1.100000
v 0.353553 0.353553 1.100000
v 0.415735 0.277785 1.100000
v 0.461940 0.191342 1.100000
v 0.490393 0.097545 1.100000
v 0.500000 0.000000 1.100000
v 0.490393 -0.097545 1.100000
v 0.461940 -0.191342 1.100000
v 0.415735 -0.277785 1.100000
v 0.353553 -0.353553 1.100000
v 0.277785 -0.415735 1.100000
v 0.191342 -0.461940 1.100000
v 0.097545 -0.490393 1.100000
v 0.000000 -0.000000 1.900000
v 0.000000 -0.350000 -1.500000
v 0.000000 -0.500000 -1.100000
v -0.068282 -0.343275 -1.500000
v -0.097545 -0.490393 -1.100000
v -0.133939 -0.323358 -1.500000
v -0.191342 -0.461940 -1.100000
v -0.194450 -0.291014 -1.500000
v -0.277785 -0.415735 -1.100000
v -0.247487 -0.247487 -1.500000
v -0.353553 -0.353553 -1.100000
v -0.291014 -0.194450 -1.500000
v -0.415735 -0.277785 -1.100000
v -0.323358 -0.133939 -1.500000
v -0.461940 -0.191342 -1.100000
v -0.343275 -0.068282 -1.500000
v -0.490393 -0.097545 -1.100000
v -0.350000 0.000000 -1.500000
v -0.500000 0.000000 -1.100000
v -0.343275 0.068282 -1.500000
v -0.490393 0.097545 -1.100000
v -0.323358 0.133939 -1.500000
v -0.461940 0.191342 -1.100000
v -0.291014 0.194450 -1.500000
v -0.415735 0.277785 -1.100000
v -0.247487 0.247487 -1.500000
v -0.353553 0.353553 -1.100000
v -0.194450 0.291014 -1.500000
v -0.277785 0.415735 -1.100000
v -0.133939 0.323358 -1.500000
v -0.191342 0.461940 -1.100000
v -0.068282 0.343275 -1.500000
v -0.097545 0.490393 -1.100000
v 0.000000 0.350000 -1.500000
v 0.000000 0.500000 -1.100000
v 0.068282 0.343275 -1.500000
v 0.097545 0.490393 -1.100000
v 0.133939 0.323358 -1.500000
v 0.191342 0.461940 -1.100000
v 0.194450 0.291014 -1.500000
v 0.277785 0.415735 -1.100000
v 0.247487 0.247487 -1.500000
v 0.353553 0.353553 -1.100000
v 0.291014 0.194450 -1.500000
v 0.415735 0.277785 -1.100000
v 0.323358 0.133939 -1.500000
v 0.461940 0.191342 -1.100000
v 0.343275 0.068282 -1.500000
v 0.490393 0.097545 -1.100000
v 0.350000 0.000000 -1.500000
v 0.500000 0.000000 -1.100000
v 0.343275 -0.068282 -1.500000
v 0.490393 -0.097545 -1.100000
v 0.323358 -0.133939 -1.500000
v 0.461940 -0.191342 -1.100000
v 0.291014 -0.194450 -1.500000
v 0.415735 -0.277785 -1.100000
v 0.247487 -0.247487 -1.500000
v 0.353553 -0.353553 -1.100000
v 0.194450 -0.291014 -1.500000
v 0.277785 -0.415735 -1.100000
v 0.133939 -0.323358 -1.500000
v 0.191342 -0.461940 -1.100000
v 0.068282 -0.343275 -1.500000
v 0.097545 -0.490393 -1.100000
v -0.500000 -0.000000 -1.100000
v -0.900000 -0.000000 -1.100000
v -0.500000 0.000000 0.100000
v -0.900000 0.000000 -0.500000
v -0.500000 -0.020000 -1.100000
v -0.900000 -0.020000 -1.100000
v -0.500000 -0.020000 0.100000
v -0.900000 -0.020000 -0.500000
v 0.000000 -0.500000 -1.100000
v 0.000000 -0.900000 -1.100000
v -0.000000 -0.500000 0.100000
v -0.000000 -0.900000 -0.500000
v 0.020000 -0.500000 -1.100000
v 0.020000 -0.900000 -1.100000
v 0.020000 -0.500000 0.100000
v 0.020000 -0.900000 -0.500000
v 0.500000 -0.000000 -1.100000
v 0.900000 0.000000 -1.100000
v 0.500000 -0.000000 0.100000
v 0.900000 0.000000 -0.500000
v 0.500000 0.020000 -1.100000
v 0.900000 0.020000 -1.100000
v 0.500000 0.020000 0.100000
v 0.900000 0.020000 -0.500000
v 0.000000 0.500000 -1.100000
v -0.000000 0.900000 -1.100000
v 0.000000 0.500000 0.100000
v -0.000000 0.900000 -0.500000
v -0.020000 0.500000 -1.100000
v -0.020000 0.900000 -1.100000
v -0.020000 0.500000 0.100000
v -0.020000 0.900000 -0.500000
v 0.000000 -0.520000 0.475000
v 0.000000 -0.520000 0.525000
v -0.101447 -0.510008 0.475000
v -0.101447 -0.510008 0.525000
v -0.198995 -0.480417 0.475000
v -0.198995 -0.480417 0.525000
v -0.288897 -0.432364 0.475000
v -0.288897 -0.432364 0.525000
v -0.367696 -0.367696 0.475000
v -0.367696 -0.367696 0.525000
v -0.432364 -0.288897 0.475000
v -0.432364 -0.288897 0.525000
v -0.480417 -0.198995 0.475000
v -0.480417 -0.198995 0.525000
v -0.510008 -0.101447 0.475000
v -0.510008 -0.101447 0.525000
v -0.520000 0.000000 0.475000
v -0.520000 0.000000 0.525000
v -0.510008 0.101447 0.475000
v -0.510008 0.101447 0.525000
v -0.480417 0.198995 0.475000
v -0.480417 0.198995 0.525000
v -0.432364 0.288897 0.475000
v -0.432364 0.288897 0.525000
v -0.367696 0.367696 0.475000
v -0.367696 0.367696 0.525000
v -0.288897 0.432364 0.475000
v -0.288897 0.432364 0.525000
v -0.198995 0.480417 0.475000
v -0.198995 0.480417 0.525000
v -0.101447 0.510008 0.475000
v -0.101447 0.510008 0.525000
v 0.000000 0.520000 0.475000
v 0.000000 0.520000 0.525000
v 0.101447 0.510008 0.475000
v 0.101447 0.510008 0.525000
v 0.198995 0.480417 0.475000
v 0.198995 0.480417 0.525000
v 0.288897 0.432364 0.475000
v 0.288897 0.432364 0.525000
v 0.367696 0.367696 0.475000
v 0.367696 0.367696 0.525000
v 0.432364 0.288897 0.475000
v 0.432364 0.288897 0.525000
v 0.480417 0.198995 0.475000
v 0.480417 0.198995 0.525000
v 0.510008 0.101447 0.475000
v 0.510008 0.101447 0.525000
v 0.520000 0.000000 0.475000
v 0.520000 0.000000 0.525000
v 0.510008 -0.101447 0.475000
v 0.510008 -0.101447 0.525000
v 0.480417 -0.198995 0.475000
v 0.480417 -0.198995 0.525000
v 0.432364 -0.288897 0.475000
v 0.432364 -0.288897 0.525000
v 0.367696 -0.367696 0.475000
v 0.367696 -0.367696 0.525000
v 0.288897 -0.432364 0.475000
v 0.288897 -0.432364 0.525000
v 0.198995 -0.480417 0.475000
v 0.198995 -0.480417 0.525000
v 0.101447 -0.510008 0.475000
v 0.101447 -0.510008 0.525000
v 0.000000 -0.520000 0.971754
v 0.000000 -0.520000 1.021754
v -0.101447 -0.510008 0.971754
v -0.101447 -0.510008 1.021754
v -0.198995 -0.480417 0.971754
v -0.198995 -0.480417 1.021754
v -0.288897 -0.432364 0.971754
v -0.288897 -0.432364 1.021754
v -0.367696 -0.367696 0.971754
v -0.367696 -0.367696 1.021754
v -0.432364 -0.288897 0.971754
v -0.432364 -0.288897 1.021754
v -0.480417 -0.198995 0.971754
v -0.480417 -0.198995 1.021754
v -0.510008 -0.101447 0.971754
v -0.510008 -0.101447 1.021754
v -0.520000 0.000000 0.971754
v -0.520000 0.000000 1.021754
v -0.510008 0.101447 0.971754
v -0.510008 0.101447 1.021754
v -0.480417 0.198995 0.971754
v -0.480417 0.198995 1.021754
v -0.432364 0.288897 0.971754
v -0.432364 0.288897 1.021754
v -0.367696 0.367696 0.971754
v -0.367696 0.367696 1.021754
v -0.288897 0.432364 0.971754
v -0.288897 0.432364 1.021754
v -0.198995 0.480417 0.971754
v -0.198995 0.480417 1.021754
v -0.101447 0.510008 0.971754
v -0.101447 0.510008 1.021754
v 0.000000 0.520000 0.971754
v 0.000000 0.520000 1.021754
v 0.101447 0.510008 0.971754
v 0.101447 0.510008 1.021754
v 0.198995 0.480417 0.971754
v 0.198995 0.480417 1.021754
v 0.288897 0.432364 0.971754
v 0.288897 0.432364 1.021754
v 0.367696 0.367696 0.971754
v 0.367696 0.367696 1.021754
v 0.432364 0.288897 0.971754
v 0.432364 0.288897 1.021754
v 0.480417 0.198995 0.971754
v 0.480417 0.198995 1.021754
v 0.510008 0.101447 0.971754
v 0.510008 0.101447 1.021754
v 0.520000 0.000000 0.971754
v 0.520000 0.000000 1.021754
v 0.510008 -0.101447 0.971754
v 0.510008 -0.101447 1.021754
v 0.480417 -0.198995 0.971754
v 0.480417 -0.198995 1.021754
v 0.432364 -0.288897 0.971754
v 0.432364 -0.288897 1.021754
v 0.367696 -0.367696 0.971754
v 0.367696 -0.367696 1.021754
v 0.288897 -0.432364 0.971754
v 0.288897 -0.432364 1.021754
v 0.198995 -0.480417 0.971754
v 0.198995 -0.480417 1.021754
v 0.101447 -0.510008 0.971754
v 0.101447 -0.510008 1.021754
vt 1.000000 0.500000
vt 1.000000 1.000000
vt 0.968750 1.000000
vt 0.968750 0.500000
vt 0.937500 1.000000
vt 0.937500 0.500000
vt 0.906250 1.000000
vt 0.906250 0.500000
vt 0.875000 1.000000
vt 0.875000 0.500000
vt 0.843750 1.000000
vt 0.843750 0.500000
vt 0.812500 1.000000
vt 0.812500 0.500000
vt 0.781250 1.000000
vt 0.781250 0.500000
vt 0.750000 1.000000
vt 0.750000 0.500000
vt 0.718750 1.000000
vt 0.718750 0.500000
vt 0.687500 1.000000
vt 0.687500 0.500000
vt 0.656250 1.000000
vt 0.656250 0.500000
vt 0.625000 1.000000
vt 0.625000 0.500000
vt 0.593750 1.000000
vt 0.593750 0.500000
vt 0.562500 1.000000
vt 0.562500 0.500000
vt 0.531250 1.000000
vt 0.531250 0.500000
vt 0.500000 1.000000
vt 0.500000 0.500000
vt 0.468750 1.000000
vt 0.468750 0.500000
vt 0.437500 1.000000
vt 0.437500 0.500000
vt 0.406250 1.000000
vt 0.406250 0.500000
vt 0.375000 1.000000
vt 0.375000 0.500000
vt 0.343750 1.000000
vt 0.343750 0.500000
vt 0.312500 1.000000
vt 0.312500 0.500000
vt 0.281250 1.000000
vt 0.281250 0.500000
vt 0.250000 1.000000
vt 0.250000 0.500000
vt 0.218750 1.000000
vt 0.218750 0.500000
vt 0.187500 1.000000
vt 0.187500 0.500000
vt 0.156250 1.000000
vt 0.156250 0.500000
vt 0.125000 1.000000
vt 0.125000 0.500000
vt 0.093750 1.000000
vt 0.093750 0.500000
vt 0.062500 1.000000
vt 0.062500 0.500000
vt 0.296822 0.485388
vt 0.250000 0.490000
vt 0.203178 0.485388
vt 0.158156 0.471731
vt 0.116663 0.449553
vt 0.080294 0.419706
vt 0.050447 0.383337
vt 0.028269 0.341844
vt 0.014612 0.296822
vt 0.010000 0.250000
vt 0.014612 0.203178
vt 0.028269 0.158156
vt 0.050447 0.116663
vt 0.080294 0.080294
vt 0.116663 0.050447
vt 0.158156 0.028269
vt 0.203178 0.014612
vt 0.250000 0.010000
vt 0.296822 0.014612
vt 0.341844 0.028269
vt 0.383337 0.050447
vt 0.419706 0.080294
vt 0.449553 0.116663
vt 0.471731 0.158156
vt 0.485388 0.203178
vt 0.490000 0.250000
vt 0.485388 0.296822
vt 0.471731 0.341844
vt 0.449553 0.383337
vt 0.419706 0.419706
vt 0.383337 0.449553
vt 0.341844 0.471731
vt 0.031250 1.000000
vt 0.031250 0.500000
vt 0.000000 1.000000
vt 0.000000 0.500000
vt 0.750000 0.490000
vt 0.796822 0.485388
vt 0.841844 0.471731
vt 0.883337 0.449553
vt 0.919706 0.419706
vt 0.949553 0.383337
vt 0.971731 0.341844
vt 0.985388 0.296822
vt 0.990000 0.250000
vt 0.985388 0.203178
vt 0.971731 0.158156
vt 0.949553 0.116663
vt 0.919706 0.080294
vt 0.883337 0.050447
vt 0.841844 0.028269
vt 0.796822 0.014612
vt 0.750000 0.010000
vt 0.703178 0.014612
vt 0.658156 0.028269
vt 0.616663 0.050447
vt 0.580294 0.080294
vt 0.550447 0.116663
vt 0.528269 0.158156
vt 0.514612 0.203178
vt 0.510000 0.250000
vt 0.514612 0.296822
vt 0.528269 0.341844
vt 0.550447 0.383337
vt 0.580294 0.419706
vt 0.616663 0.449553
vt 0.658156 0.471731
vt 0.703178 0.485388
vt 0.250000 0.490000
vt 0.250000 0.250000
vt 0.296822 0.485388
vt 0.341844 0.471731
vt 0.383337 0.449553
vt 0.419706 0.419706
vt 0.449553 0.383337
vt 0.471731 0.341844
vt 0.485388 0.296822
vt 0.490000 0.250000
vt 0.485388 0.203178
vt 0.471731 0.158156
vt 0.449553 0.116663
vt 0.419706 0.080294
vt 0.383337 0.050447
vt 0.341844 0.028269
vt 0.296822 0.014612
vt 0.250000 0.010000
vt 0.203178 0.014612
vt 0.158156 0.028269
vt 0.116663 0.050447
vt 0.080294 0.080294
vt 0.050447 0.116663
vt 0.028269 0.158156
vt 0.014612 0.203178
vt 0.010000 0.250000
vt 0.014612 0.296822
vt 0.028269 0.341844
vt 0.050447 0.383337
vt 0.080294 0.419706
vt 0.116663 0.449553
vt 0.158156 0.471731
vt 0.750000 0.490000
vt 0.796822 0.485388
vt 0.841844 0.471731
vt 0.883337 0.449553
vt 0.919706 0.419706
vt 0.949553 0.383337
vt 0.971731 0.341844
vt 0.985388 0.296822
vt 0.990000 0.250000
vt 0.985388 0.203178
vt 0.971731 0.158156
vt 0.949553 0.116663
vt 0.919706 0.080294
vt 0.883337 0.050447
vt 0.841844 0.028269
vt 0.796822 0.014612
vt 0.750000 0.010000
vt 0.703178 0.014612
vt 0.658156 0.028269
vt 0.616663 0.050447
vt 0.580294 0.080294
vt 0.550447 0.116663
vt 0.528269 0.158156
vt 0.514612 0.203178
vt 0.510000 0.250000
vt 0.514612 0.296822
vt 0.528269 0.341844
vt 0.550447 0.383337
vt 0.580294 0.419706
vt 0.616663 0.449553
vt 0.658156 0.471731
vt 0.703178 0.485388
vt 0.203178 0.485388
vt 1.000000 0.500000
vt 1.000000 1.000000
vt 0.968750 1.000000
vt 0.968750 0.500000
vt 0.937500 1.000000
vt 0.937500 0.500000
vt 0.906250 1.000000
vt 0.906250 0.500000
vt 0.875000 1.000000
vt 0.875000 0.500000
vt 0.843750 1.000000
vt 0.843750 0.500000
vt 0.812500 1.000000
vt 0.812500 0.500000
vt 0.781250 1.000000
vt 0.781250 0.500000
vt 0.750000 1.000000
vt 0.750000 0.500000
vt 0.718750 1.000000
vt 0.718750 0.500000
vt 0.687500 1.000000
vt 0.687500 0.500000
vt 0.656250 1.000000
vt 0.656250 0.500000
vt 0.625000 1.000000
vt 0.625000 0.500000
vt 0.593750 1.000000
vt 0.593750 0.500000
vt 0.562500 1.000000
vt 0.562500 0.500000
vt 0.531250 1.000000
vt 0.531250 0.500000
vt 0.500000 1.000000
vt 0.500000 0.500000
vt 0.468750 1.000000
vt 0.468750 0.500000
vt 0.437500 1.000000
vt 0.437500 0.500000
vt 0.406250 1.000000
vt 0.406250 0.500000
vt 0.375000 1.000000
vt 0.375000 0.500000
vt 0.343750 1.000000
vt 0.343750 0.500000
vt 0.312500 1.000000
vt 0.312500 0.500000
vt 0.281250 1.000000
vt 0.281250 0.500000
vt 0.250000 1.000000
vt 0.250000 0.500000
vt 0.218750 1.000000
vt 0.218750 0.500000
vt 0.187500 1.000000
vt 0.187500 0.500000
vt 0.156250 1.000000
vt 0.156250 0.500000
vt 0.125000 1.000000
vt 0.125000 0.500000
vt 0.093750 1.000000
vt 0.093750 0.500000
vt 0.062500 1.000000
vt 0.062500 0.500000
vt 0.296822 0.485388
vt 0.250000 0.490000
vt 0.203178 0.485388
vt 0.158156 0.471731
vt 0.116663 0.449553
vt 0.080294 0.419706
vt 0.050447 0.383337
vt 0.028269 0.341844
vt 0.014612 0.296822
vt 0.010000 0.250000
vt 0.014612 0.203178
vt 0.028269 0.158156
vt 0.050447 0.116663
vt 0.080294 0.080294
vt 0.116663 0.050447
vt 0.158156 0.028269
vt 0.203178 0.014612
vt 0.250000 0.010000
vt 0.296822 0.014612
vt 0.341844 0.028269
vt 0.383337 0.050447
vt 0.419706 0.080294
vt 0.449553 0.116663
vt 0.471731 0.158156
vt 0.485388 0.203178
vt 0.490000 0.250000
vt 0.485388 0.296822
vt 0.471731 0.341844
vt 0.449553 0.383337
vt 0.419706 0.419706
vt 0.383337 0.449553
vt 0.341844 0.471731
vt 0.031250 1.000000
vt 0.031250 0.500000
vt 0.000000 1.000000
vt 0.000000 0.500000
vt 0.750000 0.490000
vt 0.796822 0.485388
vt 0.841844 0.471731
vt 0.883337 0.449553
vt 0.919706 0.419706
vt 0.949553 0.383337
vt 0.971731 0.341844
vt 0.985388 0.296822
vt 0.990000 0.250000
vt 0.985388 0.203178
vt 0.971731 0.158156
vt 0.949553 0.116663
vt 0.919706 0.080294
vt 0.883337 0.050447
vt 0.841844 0.028269
vt 0.796822 0.014612
vt 0.750000 0.010000
vt 0.703178 0.014612
vt 0.658156 0.028269
vt 0.616663 0.050447
vt 0.580294 0.080294
vt 0.550447 0.116663
vt 0.528269 0.158156
vt 0.514612 0.203178
vt 0.510000 0.250000
vt 0.514612 0.296822
vt 0.528269 0.341844
vt 0.550447 0.383337
vt 0.580294 0.419706
vt 0.616663 0.449553
vt 0.658156 0.471731
vt 0.703178 0.485388
vt 0.000000 0.000000
vt 1.000000 0.000000
vt 1.000000 1.000000
vt 0.000000 1.000000
vt 0.000000 0.000000
vt 1.000000 0.000000
vt 1.000000 1.000000
vt 0.000000 1.000000
vt 0.000000 0.000000
vt 1.000000 0.000000
vt 1.000000 1.000000
vt 0.000000 1.000000
vt 0.000000 0.000000
vt 1.000000 0.000000
vt 1.000000 1.000000
vt 0.000000 1.000000
vt 1.000000 0.500000
vt 1.000000 1.000000
vt 0.968750 1.000000
vt 0.968750 0.500000
vt 0.937500 1.000000
vt 0.937500 0.500000
vt 0.906250 1.000000
vt 0.906250 0.500000
vt 0.875000 1.000000
vt 0.875000 0.500000
vt 0.843750 1.000000
vt 0.843750 0.500000
vt 0.812500 1.000000
vt 0.812500 0.500000
vt 0.781250 1.000000
vt 0.781250 0.500000
vt 0.750000 1.000000
vt 0.750000 0.500000
vt 0.718750 1.000000
vt 0.718750 0.500000
vt 0.687500 1.000000
vt 0.687500 0.500000
vt 0.656250 1.000000
vt 0.656250 0.500000
vt 0.625000 1.000000
vt 0.625000 0.500000
vt 0.593750 1.000000
vt 0.593750 0.500000
vt 0.562500 1.000000
vt 0.562500 0.500000
vt 0.531250 1.000000
vt 0.531250 0.500000
vt 0.500000 1.000000
vt 0.500000 0.500000
vt 0.468750 1.000000
vt 0.468750 0.500000
vt 0.437500 1.000000
vt 0.437500 0.500000
vt 0.406250 1.000000
vt 0.406250 0.500000
vt 0.375000 1.000000
vt 0.375000 0.500000
vt 0.343750 1.000000
vt 0.343750 0.500000
vt 0.312500 1.000000
vt 0.312500 0.500000
vt 0.281250 1.000000
vt 0.281250 0.500000
vt 0.250000 1.000000
vt 0.250000 0.500000
vt 0.218750 1.000000
vt 0.218750 0.500000
vt 0.187500 1.000000
vt 0.187500 0.500000
vt 0.156250 1.000000
vt 0.156250 0.500000
vt 0.125000 1.000000
vt 0.125000 0.500000
vt 0.093750 1.000000
vt 0.093750 0.500000
vt 0.062500 1.000000
vt 0.062500 0.500000
vt 0.296822 0.485388
vt 0.250000 0.490000
vt 0.203178 0.485388
vt 0.158156 0.471731
vt 0.116663 0.449553
vt 0.080294 0.419706
vt 0.050447 0.383337
vt 0.028269 0.341844
vt 0.014612 0.296822
vt 0.010000 0.250000
vt 0.014612 0.203178
vt 0.028269 0.158156
vt 0.050447 0.116663
vt 0.080294 0.080294
vt 0.116663 0.050447
vt 0.158156 0.028269
vt 0.203178 0.014612
vt 0.250000 0.010000
vt 0.296822 0.014612
vt 0.341844 0.028269
vt 0.383337 0.050447
vt 0.419706 0.080294
vt 0.449553 0.116663
vt 0.471731 0.158156
vt 0.485388 0.203178
vt 0.490000 0.250000
vt 0.485388 0.296822
vt 0.471731 0.341844
vt 0.449553 0.383337
vt 0.419706 0.419706
vt 0.383337 0.449553
vt 0.341844 0.471731
vt 0.031250 1.000000
vt 0.031250 0.500000
vt 0.000000 1.000000
vt 0.000000 0.500000
vt 0.750000 0.490000
vt 0.796822 0.485388
vt 0.841844 0.471731
vt 0.883337 0.449553
vt 0.919706 0.419706
vt 0.949553 0.383337
vt 0.971731 0.341844
vt 0.985388 0.296822
vt 0.990000 0.250000
vt 0.985388 0.203178
vt 0.971731 0.158156
vt 0.949553 0.116663
vt 0.919706 0.080294
vt 0.883337 0.050447
vt 0.841844 0.028269
vt 0.796822 0.014612
vt 0.750000 0.010000
vt 0.703178 0.014612
vt 0.658156 0.028269
vt 0.616663 0.050447
vt 0.580294 0.080294
vt 0.550447 0.116663
vt 0.528269 0.158156
vt 0.514612 0.203178
vt 0.510000 0.250000
vt 0.514612 0.296822
vt 0.528269 0.341844
vt 0.550447 0.383337
vt 0.580294 0.419706
vt 0.616663 0.449553
vt 0.658156 0.471731
vt 0.703178 0.485388
vt 1.000000 0.500000
vt 1.000000 1.000000
vt 0.968750 1.000000
vt 0.968750 0.500000
vt 0.937500 1.000000
vt 0.937500 0.500000
vt 0.906250 1.000000
vt 0.906250 0.500000
vt 0.875000 1.000000
vt 0.875000 0.500000
vt 0.843750 1.000000
vt 0.843750 0.500000
vt 0.812500 1.000000
vt 0.812500 0.500000
vt 0.781250 1.000000
vt 0.781250 0.500000
vt 0.750000 1.000000
vt 0.750000 0.500000
vt 0.718750 1.000000
vt 0.718750 0.500000
vt 0.687500 1.000000
vt 0.687500 0.500000
vt 0.656250 1.000000
vt 0.656250 0.500000
vt 0.625000 1.000000
vt 0.625000 0.500000
vt 0.593750 1.000000
vt 0.593750 0.500000
vt 0.562500 1.000000
vt 0.562500 0.500000
vt 0.531250 1.000000
vt 0.531250 0.500000
vt 0.500000 1.000000
vt 0.500000 0.500000
vt 0.468750 1.000000
vt 0.468750 0.500000
vt 0.437500 1.000000
vt 0.437500 0.500000
vt 0.406250 1.000000
vt 0.406250 0.500000
vt 0.375000 1.000000
vt 0.375000 0.500000
vt 0.343750 1.000000
vt 0.343750 0.500000
vt 0.312500 1.000000
vt 0.312500 0.500000
vt 0.281250 1.000000
vt 0.281250 0.500000
vt 0.250000 1.000000
vt 0.250000 0.500000
vt 0.218750 1.000000
vt 0.218750 0.500000
vt 0.187500 1.000000
vt 0.187500 0.500000
vt 0.156250 1.000000
vt 0.156250 0.500000
vt 0.125000 1.000000
vt 0.125000 0.500000
vt 0.093750 1.000000
vt 0.093750 0.500000
vt 0.062500 1.000000
vt 0.062500 0.500000
vt 0.296822 0.485388
vt 0.250000 0.490000
vt 0.203178 0.485388
vt 0.158156 0.471731
vt 0.116663 0.449553
vt 0.080294 0.419706
vt 0.050447 0.383337
vt 0.028269 0.341844
vt 0.014612 0.296822
vt 0.010000 0.250000
vt 0.014612 0.203178
vt 0.028269 0.158156
vt 0.050447 0.116663
vt 0.080294 0.080294
vt 0.116663 0.050447
vt 0.158156 0.028269
vt 0.203178 0.014612
vt 0.250000 0.010000
vt 0.296822 0.014612
vt 0.341844 0.028269
vt 0.383337 0.050447
vt 0.419706 0.080294
vt 0.449553 0.116663
vt 0.471731 0.158156
vt 0.485388 0.203178
vt 0.490000 0.250000
vt 0.485388 0.296822
vt 0.471731 0.341844
vt 0.449553 0.383337
vt 0.419706 0.419706
vt 0.383337 0.449553
vt 0.341844 0.471731
vt 0.031250 1.000000
vt 0.031250 0.500000
vt 0.000000 1.000000
vt 0.000000 0.500000
vt 0.750000 0.490000
vt 0.796822 0.485388
vt 0.841844 0.471731
vt 0.883337 0.449553
vt 0.919706 0.419706
vt 0.949553 0.383337
vt 0.971731 0.341844
vt 0.985388 0.296822
vt 0.990000 0.250000
vt 0.985388 0.203178
vt 0.971731 0.158156
vt 0.949553 0.116663
vt 0.919706 0.080294
vt 0.883337 0.050447
vt 0.841844 0.028269
vt 0.796822 0.014612
vt 0.750000 0.010000
vt 0.703178 0.014612
vt 0.658156 0.028269
vt 0.616663 0.050447
vt 0.580294 0.080294
vt 0.550447 0.116663
vt 0.528269 0.158156
vt 0.514612 0.203178
vt 0.510000 0.250000
vt 0.514612 0.296822
vt 0.528269 0.341844
vt 0.550447 0.383337
vt 0.580294 0.419706
vt 0.616663 0.449553
vt 0.658156 0.471731
vt 0.703178 0.485388
vn -0.0000 -1.0000 -0.0000
vn -0.1951 -0.9808 -0.0000
vn -0.3827 -0.9239 -0.0000
vn -0.5556 -0.8315 -0.0000
vn -0.7071 -0.7071 -0.0000
vn -0.8315 -0.5556 -0.0000
vn -0.9239 -0.3827 -0.0000
vn -0.9808 -0.1951 -0.0000
vn -1.0000 -0.0000 -0.0000
vn -0.9808 0.1951 -0.0000
vn -0.9239 0.3827 -0.0000
vn -0.8315 0.5556 -0.0000
vn -0.7071 0.7071 -0.0000
vn -0.5556 0.8315 -0.0000
vn -0.3827 0.9239 -0.0000
vn -0.1951 0.9808 -0.0000
vn -0.0000 1.0000 -0.0000
vn 0.1951 0.9808 -0.0000
vn 0.3827 0.9239 -0.0000
vn 0.5556 0.8315 -0.0000
vn 0.7071 0.7071 -0.0000
vn 0.8315 0.5556 -0.0000
vn 0.9239 0.3827 -0.0000
vn 0.9808 0.1951 -0.0000
vn 1.0000 -0.0000 -0.0000
vn 0.9808 -0.1951 -0.0000
vn 0.9239 -0.3827 -0.0000
vn 0.8315 -0.5556 -0.0000
vn 0.7071 -0.7071 -0.0000
vn 0.5556 -0.8315 -0.0000
vn 0.3827 -0.9239 -0.0000
vn -0.0000 -0.0000 1.0000
vn 0.1951 -0.9808 -0.0000
vn -0.0000 -0.0000 -1.0000
vn -0.0000 -0.8480 0.5300
vn -0.0000 -0.0000 1.0000
vn -0.1654 -0.8317 0.5300
vn -0.3245 -0.7834 0.5300
vn -0.4711 -0.7051 0.5300
vn -0.5996 -0.5996 0.5300
vn -0.7051 -0.4711 0.5300
vn -0.7834 -0.3245 0.5300
vn -0.8317 -0.1654 0.5300
vn -0.8480 -0.0000 0.5300
vn -0.8317 0.1654 0.5300
vn -0.7834 0.3245 0.5300
vn -0.7051 0.4711 0.5300
vn -0.5996 0.5996 0.5300
vn -0.4711 0.7051 0.5300
vn -0.3245 0.7834 0.5300
vn -0.1654 0.8317 0.5300
vn -0.0000 0.8480 0.5300
vn 0.1654 0.8317 0.5300
vn 0.3245 0.7834 0.5300
vn 0.4711 0.7051 0.5300
vn 0.5996 0.5996 0.5300
vn 0.7051 0.4711 0.5300
vn 0.7834 0.3245 0.5300
vn 0.8317 0.1654 0.5300
vn 0.8480 -0.0000 0.5300
vn 0.8317 -0.1654 0.5300
vn 0.7834 -0.3245 0.5300
vn 0.7051 -0.4711 0.5300
vn 0.5996 -0.5996 0.5300
vn 0.4711 -0.7051 0.5300
vn 0.3245 -0.7834 0.5300
vn -0.0000 -0.0000 -1.0000
vn 0.1654 -0.8317 0.5300
vn -0.0000 -0.9363 -0.3511
vn -0.1827 -0.9183 -0.3511
vn -0.3583 -0.8651 -0.3511
vn -0.5202 -0.7785 -0.3511
vn -0.6621 -0.6621 -0.3511
vn -0.7785 -0.5202 -0.3511
vn -0.8651 -0.3583 -0.3511
vn -0.9183 -0.1827 -0.3511
vn -0.9363 -0.0000 -0.3511
vn -0.9183 0.1827 -0.3511
vn -0.8651 0.3583 -0.3511
vn -0.7785 0.5202 -0.3511
vn -0.6621 0.6621 -0.3511
vn -0.5202 0.7785 -0.3511
vn -0.3583 0.8651 -0.3511
vn -0.1827 0.9183 -0.3511
vn -0.0000 0.9363 -0.3511
vn 0.1827 0.9183 -0.3511
vn 0.3583 0.8651 -0.3511
vn 0.5202 0.7785 -0.3511
vn 0.6621 0.6621 -0.3511
vn 0.7785 0.5202 -0.3511
vn 0.8651 0.3583 -0.3511
vn 0.9183 0.1827 -0.3511
vn 0.9363 -0.0000 -0.3511
vn 0.9183 -0.1827 -0.3511
vn 0.8651 -0.3583 -0.3511
vn 0.7785 -0.5202 -0.3511
vn 0.6621 -0.6621 -0.3511
vn 0.5202 -0.7785 -0.3511
vn 0.3583 -0.8651 -0.3511
vn -0.0000 -0.0000 1.0000
vn 0.1827 -0.9183 -0.3511
vn -0.0000 -0.0000 -1.0000
vn -0.0000 1.0000 -0.0000
vn -0.0000 -1.0000 -0.0000
vn 1.0000 -0.0000 -0.0000
vn -0.0000 -0.0000 -1.0000
vn -1.0000 -0.0000 -0.0000
vn -0.8321 -0.0000 0.5547
vn -1.0000 -0.0000 -0.0000
vn 1.0000 -0.0000 -0.0000
vn -0.0000 1.0000 -0.0000
vn -0.0000 -0.0000 -1.0000
vn -0.0000 -1.0000 -0.0000
vn -0.0000 -0.8321 0.5547
vn -0.0000 -1.0000 -0.0000
vn -0.0000 1.0000 -0.0000
vn -1.0000 -0.0000 -0.0000
vn -0.0000 -0.0000 -1.0000
vn 1.0000 -0.0000 -0.0000
vn 0.8321 -0.0000 0.5547
vn 1.0000 -0.0000 -0.0000
vn -1.0000 -0.0000 -0.0000
vn -0.0000 -1.0000 -0.0000
vn -0.0000 -0.0000 -1.0000
vn -0.0000 1.0000 -0.0000
vn -0.0000 0.8321 0.5547
vn -0.0980 -0.9952 -0.0000
vn -0.2903 -0.9569 -0.0000
vn -0.4714 -0.8819 -0.0000
vn -0.6344 -0.7730 -0.0000
vn -0.7730 -0.6344 -0.0000
vn -0.8819 -0.4714 -0.0000
vn -0.9569 -0.2903 -0.0000
vn -0.9952 -0.0980 -0.0000
vn -0.9952 0.0980 -0.0000
vn -0.9569 0.2903 -0.0000
vn -0.8819 0.4714 -0.0000
vn -0.7730 0.6344 -0.0000
vn -0.6344 0.7730 -0.0000
vn -0.4714 0.8819 -0.0000
vn -0.2903 0.9569 -0.0000
vn -0.0980 0.9952 -0.0000
vn 0.0980 0.9952 -0.0000
vn 0.2903 0.9569 -0.0000
vn 0.4714 0.8819 -0.0000
vn 0.6344 0.7730 -0.0000
vn 0.7730 0.6344 -0.0000
vn 0.8819 0.4714 -0.0000
vn 0.9569 0.2903 -0.0000
vn 0.9952 0.0980 -0.0000
vn 0.9952 -0.0980 -0.0000
vn 0.9569 -0.2903 -0.0000
vn 0.8819 -0.4714 -0.0000
vn 0.7730 -0.6344 -0.0000
vn 0.6344 -0.7730 -0.0000
vn 0.4714 -0.8819 -0.0000
vn -0.0000 -0.0000 1.0000
vn 0.2903 -0.9569 -0.0000
vn 0.0980 -0.9952 -0.0000
vn -0.0000 -0.0000 -1.0000
vn -0.0980 -0.9952 -0.0000
vn -0.2903 -0.9569 -0.0000
vn -0.4714 -0.8819 -0.0000
vn -0.6344 -0.7730 -0.0000
vn -0.7730 -0.6344 -0.0000
vn -0.8819 -0.4714 -0.0000
vn -0.9569 -0.2903 -0.0000
vn -0.9952 -0.0980 -0.0000
vn -0.9952 0.0980 -0.0000
vn -0.9569 0.2903 -0.0000
vn -0.8819 0.4714 -0.0000
vn -0.7730 0.6344 -0.0000
vn -0.6344 0.7730 -0.0000
vn -0.4714 0.8819 -0.0000
vn -0.2903 0.9569 -0.0000
vn -0.0980 0.9952 -0.0000
vn 0.0980 0.9952 -0.0000
vn 0.2903 0.9569 -0.0000
vn 0.4714 0.8819 -0.0000
vn 0.6344 0.7730 -0.0000
vn 0.7730 0.6344 -0.0000
vn 0.8819 0.4714 -0.0000
vn 0.9569 0.2903 -0.0000
vn 0.9952 0.0980 -0.0000
vn 0.9952 -0.0980 -0.0000
vn 0.9569 -0.2903 -0.0000
vn 0.8819 -0.4714 -0.0000
vn 0.7730 -0.6344 -0.0000
vn 0.6344 -0.7730 -0.0000
vn 0.4714 -0.8819 -0.0000
vn -0.0000 -0.0000 1.0000
vn 0.2903 -0.9569 -0.0000
vn 0.0980 -0.9952 -0.0000
vn -0.0000 -0.0000 -1.0000
usemtl fins
f 162/326/103 163/327/103 165/328/103 164/329/103
f 166/326/104 168/329/104 169/328/104 167/327/104
f 162/326/105 164/329/105 168/329/105 166/326/105
f 163/327/106 162/326/106 166/326/106 167/327/106
f 165/328/107 163/327/107 167/327/107 169/328/107
f 164/329/108 165/328/108 169/328/108 168/329/108
f 170/330/109 171/331/109 173/332/109 172/333/109
f 174/330/110 176/333/110 177/332/110 175/331/110
f 170/330/111 172/333/111 176/333/111 174/330/111
f 171/331/112 170/330/112 174/330/112 175/331/112
f 173/332/113 171/331/113 175/331/113 177/332/113
f 172/333/114 173/332/114 177/332/114 176/333/114
f 178/334/115 179/335/115 181/336/115 180/337/115
f 182/334/116 184/337/116 185/336/116 183/335/116
f 178/334/117 180/337/117 184/337/117 182/334/117
f 179/335/118 178/334/118 182/334/118 183/335/118
f 181/336/119 179/335/119 183/335/119 185/336/119
f 180/337/120 181/336/120 185/336/120 184/337/120
f 186/338/121 187/339/121 189/340/121 188/341/121
f 190/338/122 192/341/122 193/340/122 191/339/122
f 186/338/123 188/341/123 192/341/123 190/338/123
f 187/339/124 186/338/124 190/338/124 191/339/124
f 189/340/125 187/339/125 191/339/125 193/340/125
f 188/341/126 189/340/126 193/340/126 192/341/126
