# split by material: main_body
mtllib rocket_booster_visual.mtl
v 0.000000 -0.500000 -1.100000
v 0.000000 -0.500000 1.100000
v -0.097545 -0.490393 -1.100000
v -0.097545 -0.490393 1.100000
v -0.191342 -0.461940 -1.100000
v -0.191342 -0.461940 1.100000
v -0.277785 -0.415735 -1.100000
v -0.277785 -0.415735 1.100000
v -0.353553 -0.353553 -1.100000
v -0.353553 -0.353553 1.100000
v -0.415735 -0.277785 -1.100000
v -0.415735 -0.277785 1.100000
v -0.461940 -0.191342 -1.100000
v -0.461940 -0.191342 1.100000
v -0.490393 -0.097545 -1.100000
v -0.490393 -0.097545 1.100000
v -0.500000 0.000000 -1.100000
v -0.500000 0.000000 1.100000
v -0.490393 0.097545 -1.100000
v -0.490393 0.097545 1.100000
v -0.461940 0.191342 -1.100000
v -0.461940 0.191342 1.100000
v -0.415735 0.277785 -1.100000
v -0.415735 0.277785 1.100000
v -0.353553 0.353553 -1.100000
v -0.353553 0.353553 1.100000
v -0.277785 0.415735 -1.100000
v -0.277785 0.415735 1.100000
v -0.191342 0.461940 -1.100000
v -0.191342 0.461940 1.100000
v -0.097545 0.490393 -1.100000
v -0.097545 0.490393 1.100000
v 0.000000 0.500000 -1.100000
v 0.000000 0.500000 1.100000
v 0.097545 0.490393 -1.100000
v 0.097545 0.490393 1.100000
v 0.191342 0.461940 -1.100000
v 0.191342 0.461940 1.100000
v 0.277785 0.415735 -1.100000
v 0.277785 0.415735 1.100000
v 0.353553 0.353553 -1.100000
v 0.353553 0.353553 1.100000
v 0.415735 0.277785 -1.100000
v 0.415735 0.277785 1.100000
v 0.461940 0.191342 -1.100000
v 0.461940 0.191342 1.100000
v 0.490393 0.097545 -1.100000
v 0.490393 0.097545 1.100000
v 0.500000 0.000000 -1.100000
v 0.500000 0.000000 1.100000
v 0.490393 -0.097545 -1.100000
v 0.490393 -0.097545 1.100000
v 0.461940 -0.191342 -1.100000
v 0.461940 -0.191342 1.100000
v 0.415735 -0.277785 -1.100000
v 0.415735 -0.277785 1.100000
v 0.353553 -0.353553 -1.100000
v 0.353553 -0.353553 1.100000
v 0.277785 -0.415735 -1.100000
v 0.277785 -0.415735 1.100000
v 0.191342 -0.461940 -1.100000
v 0.191342 -0.461940 1.100000
v 0.097545 -0.490393 -1.100000
v 0.097545 -0.490393 1.100000
v 0.000000 -0.500000 1.100000
v -0.097545 -0.490393 1.100000
v -0.191342 -0.461940 1.100000
v -0.277785 -0.415735 1.100000
v -0.353553 -0.353553 1.100000
v -0.415735 -0.277785 1.100000
v -0.461940 -0.191342 1.100000
v -0.490393 -0.097545 1.100000
v -0.500000 0.000000 1.100000
v -0.490393 0.097545 1.100000
v -0.461940 0.191342 1.100000
v -0.415735 0.277785 1.100000
v -0.353553 0.353553 1.100000
v -0.277785 0.415735 1.100000
v -0.191342 0.461940 1.100000
v -0.097545 0.490393 1.100000
v 0.000000 0.500000 1.100000
v 0.097545 0.490393 1.100000
v 0.191342 0.461940 1.100000
v 0.277785 0.415735 1.100000
v 0.353553 0.353553 1.100000
v 0.415735 0.277785 1.100000
v 0.461940 0.191342 1.100000
v 0.490393 0.097545 1.100000
v 0.500000 0.000000 1.100000
v 0.490393 -0.097545 1.100000
v 0.461940 -0.191342 1.100000
v 0.415735 -0.277785 1.100000
v 0.353553 -0.353553 1.100000
v 0.277785 -0.415735 1.100000
v 0.191342 -0.461940 1.100000
v 0.097545 -0.490393 1.100000
v 0.000000 -0.000000 1.900000
v 0.000000 -0.350000 -1.500000
v 0.000000 -0.500000 -1.100000
v -0.068282 -0.343275 -1.500000
v -0.097545 -0.490393 -1.100000
v -0.133939 -0.323358 -1.500000
v -0.191342 -0.461940 -1.100000
v -0.194450 -0.291014 -1.500000
v -0.277785 -0.415735 -1.100000
v -0.247487 -0.247487 -1.500000
v -0.353553 -0.353553 -1.100000
v -0.291014 -0.194450 -1.500000
v -0.415735 -0.277785 -1.100000
v -0.323358 -0.133939 -1.500000
v -0.461940 -0.191342 -1.100000
v -0.343275 -0.068282 -1.500000
v -0.490393 -0.097545 -1.100000
v -0.350000 0.000000 -1.500000
v -0.500000 0.000000 -1.100000
v -0.343275 0.068282 -1.500000
v -0.490393 0.097545 -1.100000
v -0.323358 0.133939 -1.500000
v -0.461940 0.191342 -1.100000
v -0.291014 0.194450 -1.500000
v -0.415735 0.277785 -1.100000
v -0.247487 0.247487 -1.500000
v -0.353553 0.353553 -1.100000
v -0.194450 0.291014 -1.500000
v -0.277785 0.415735 -1.100000
v -0.133939 0.323358 -1.500000
v -0.191342 0.461940 -1.100000
v -0.068282 0.343275 -1.500000
v -0.097545 0.490393 -1.100000
v 0.000000 0.350000 -1.500000
v 0.000000 0.500000 -1.100000
v 0.068282 0.343275 -1.500000
v 0.097545 0.490393 -1.100000
v 0.133939 0.323358 -1.500000
v 0.191342 0.461940 -1.100000
v 0.194450 0.291014 -1.500000
v 0.277785 0.415735 -1.100000
v 0.247487 0.247487 -1.500000
v 0.353553 0.353553 -1.100000
v 0.291014 0.194450 -1.500000
v 0.415735 0.277785 -1.100000
v 0.323358 0.133939 -1.500000
v 0.461940 0.191342 -1.100000
v 0.343275 0.068282 -1.500000
v 0.490393 0.097545 -1.100000
v 0.350000 0.000000 -1.500000
v 0.500000 0.000000 -1.100000
v 0.343275 -0.068282 -1.500000
v 0.490393 -0.097545 -1.100000
v 0.323358 -0.133939 -1.500000
v 0.461940 -0.191342 -1.100000
v 0.291014 -0.194450 -1.500000
v 0.415735 -0.277785 -1.100000
v 0.247487 -0.247487 -1.500000
v 0.353553 -0.353553 -1.100000
v 0.194450 -0.291014 -1.500000
v 0.277785 -0.415735 -1.100000
v 0.133939 -0.323358 -1.500000
v 0.191342 -0.461940 -1.100000
v 0.068282 -0.343275 -1.500000
v 0.097545 -0.490393 -1.100000
v -0.500000 -0.000000 -1.100000
v -0.900000 -0.000000 -1.100000
v -0.500000 0.000000 0.100000
v -0.900000 0.000000 -0.500000
v -0.500000 -0.020000 -1.100000
v -0.900000 -0.020000 -1.100000
v -0.500000 -0.020000 0.100000
v -0.900000 -0.020000 -0.500000
v 0.000000 -0.500000 -1.100000
v 0.000000 -0.900000 -1.100000
v -0.000000 -0.500000 0.100000
v -0.000000 -0.900000 -0.500000
v 0.020000 -0.500000 -1.100000
v 0.020000 -0.900000 -1.100000
v 0.020000 -0.500000 0.100000
v 0.020000 -0.900000 -0.500000
v 0.500000 -0.000000 -1.100000
v 0.900000 0.000000 -1.100000
v 0.500000 -0.000000 0.100000
v 0.900000 0.000000 -0.500000
v 0.500000 0.020000 -1.100000
v 0.900000 0.020000 -1.100000
v 0.500000 0.020000 0.100000
v 0.900000 0.020000 -0.500000
v 0.000000 0.500000 -1.100000
v -0.000000 0.900000 -1.100000
v 0.000000 0.500000 0.100000
v -0.000000 0.900000 -0.500000
v -0.020000 0.500000 -1.100000
v -0.020000 0.900000 -1.100000
v -0.020000 0.500000 0.100000
v -0.020000 0.900000 -0.500000
v 0.000000 -0.520000 0.475000
v 0.000000 -0.520000 0.525000
v -0.101447 -0.510008 0.475000
v -0.101447 -0.510008 0.525000
v -0.198995 -0.480417 0.475000
v -0.198995 -0.480417 0.525000
v -0.288897 -0.432364 0.475000
v -0.288897 -0.432364 0.525000
v -0.367696 -0.367696 0.475000
v -0.367696 -0.367696 0.525000
v -0.432364 -0.288897 0.475000
v -0.432364 -0.288897 0.525000
v -0.480417 -0.198995 0.475000
v -0.480417 -0.198995 0.525000
v -0.510008 -0.101447 0.475000
v -0.510008 -0.101447 0.525000
v -0.520000 0.000000 0.475000
v -0.520000 0.000000 0.525000
v -0.510008 0.101447 0.475000
v -0.510008 0.101447 0.525000
v -0.480417 0.198995 0.475000
v -0.480417 0.198995 0.525000
v -0.432364 0.288897 0.475000
v -0.432364 0.288897 0.525000
v -0.367696 0.367696 0.475000
v -0.367696 0.367696 0.525000
v -0.288897 0.432364 0.475000
v -0.288897 0.432364 0.525000
v -0.198995 0.480417 0.475000
v -0.198995 0.480417 0.525000
v -0.101447 0.510008 0.475000
v -0.101447 0.510008 0.525000
v 0.000000 0.520000 0.475000
v 0.000000 0.520000 0.525000
v 0.101447 0.510008 0.475000
v 0.101447 0.510008 0.525000
v 0.198995 0.480417 0.475000
v 0.198995 0.480417 0.525000
v 0.288897 0.432364 0.475000
v 0.288897 0.432364 0.525000
v 0.367696 0.367696 0.475000
v 0.367696 0.367696 0.525000
v 0.432364 0.288897 0.475000
v 0.432364 0.288897 0.525000
v 0.480417 0.198995 0.475000
v 0.480417 0.198995 0.525000
v 0.510008 0.101447 0.475000
v 0.510008 0.101447 0.525000
v 0.520000 0.000000 0.475000
v 0.520000 0.000000 0.525000
v 0.510008 -0.101447 0.475000
v 0.510008 -0.101447 0.525000
v 0.480417 -0.198995 0.475000
v 0.480417 -0.198995 0.525000
v 0.432364 -0.288897 0.475000
v 0.432364 -0.288897 0.525000
v 0.367696 -0.367696 0.475000
v 0.367696 -0.367696 0.525000
v 0.288897 -0.432364 0.475000
v 0.288897 -0.432364 0.525000
v 0.198995 -0.480417 0.475000
v 0.198995 -0.480417 0.525000
v 0.101447 -0.510008 0.475000
v 0.101447 -0.510008 0.525000
v 0.000000 -0.520000 0.971754
v 0.000000 -0.520000 1.021754
v -0.101447 -0.510008 0.971754
v -0.101447 -0.510008 1.021754
v -0.198995 -0.480417 0.971754
v -0.198995 -0.480417 1.021754
v -0.288897 -0.432364 0.971754
v -0.288897 -0.432364 1.021754
v -0.367696 -0.367696 0.971754
v -0.367696 -0.367696 1.021754
v -0.432364 -0.288897 0.971754
v -0.432364 -0.288897 1.021754
v -0.480417 -0.198995 0.971754
v -0.480417 -0.198995 1.021754
v -0.510008 -0.101447 0.971754
v -0.510008 -0.101447 1.021754
v -0.520000 0.000000 0.971754
v -0.520000 0.000000 1.021754
v -0.510008 0.101447 0.971754
v -0.510008 0.101447 1.021754
v -0.480417 0.198995 0.971754
v -0.480417 0.198995 1.021754
v -0.432364 0.288897 0.971754
v -0.432364 0.288897 1.021754
v -0.367696 0.367696 0.971754
v -0.367696 0.367696 1.021754
v -0.288897 0.432364 0.971754
v -0.288897 0.432364 1.021754
v -0.198995 0.480417 0.971754
v -0.198995 0.480417 1.021754
v -0.101447 0.510008 0.971754
v -0.101447 0.510008 1.021754
v 0.000000 0.520000 0.971754
v 0.000000 0.520000 1.021754
v 0.101447 0.510008 0.971754
v 0.101447 0.510008 1.021754
v 0.198995 0.480417 0.971754
v 0.198995 0.480417 1.021754
v 0.288897 0.432364 0.971754
v 0.288897 0.432364 1.021754
v 0.367696 0.367696 0.971754
v 0.367696 0.367696 1.021754
v 0.432364 0.288897 0.971754
v 0.432364 0.288897 1.021754
v 0.480417 0.198995 0.971754
v 0.480417 0.198995 1.021754
v 0.510008 0.101447 0.971754
v 0.510008 0.101447 1.021754
v 0.520000 0.000000 0.971754
v 0.520000 0.000000 1.021754
v 0.510008 -0.101447 0.971754
v 0.510008 -0.101447 1.021754
v 0.480417 -0.198995 0.971754
v 0.480417 -0.198995 1.021754
v 0.432364 -0.288897 0.971754
v 0.432364 -0.288897 1.021754
v 0.367696 -0.367696 0.971754
v 0.367696 -0.367696 1.021754
v 0.288897 -0.432364 0.971754
v 0.288897 -0.432364 1.021754
v 0.198995 -0.480417 0.971754
v 0.198995 -0.480417 1.021754
v 0.101447 -0.510008 0.971754
v 0.101447 -0.510008 1.021754
vt 1.000000 0.500000
vt 1.000000 1.000000
vt 0.968750 1.000000
vt 0.968750 0.500000
vt 0.937500 1.000000
vt 0.937500 0.500000
vt 0.906250 1.000000
vt 0.906250 0.500000
vt 0.875000 1.000000
vt 0.875000 0.500000
vt 0.843750 1.000000
vt 0.843750 0.500000
vt 0.812500 1.000000
vt 0.812500 0.500000
vt 0.781250 1.000000
vt 0.781250 0.500000
vt 0.750000 1.000000
vt 0.750000 0.500000
vt 0.718750 1.000000
vt 0.718750 0.500000
vt 0.687500 1.000000
vt 0.687500 0.500000
vt 0.656250 1.000000
vt 0.656250 0.500000
vt 0.625000 1.000000
vt 0.625000 0.500000
vt 0.593750 1.000000
vt 0.593750 0.500000
vt 0.562500 1.000000
vt 0.562500 0.500000
vt 0.531250 1.000000
vt 0.531250 0.500000
vt 0.500000 1.000000
vt 0.500000 0.500000
vt 0.468750 1.000000
vt 0.468750 0.500000
vt 0.437500 1.000000
vt 0.437500 0.500000
vt 0.406250 1.000000
vt 0.406250 0.500000
vt 0.375000 1.000000
vt 0.375000 0.500000
vt 0.343750 1.000000
vt 0.343750 0.500000
vt 0.312500 1.000000
vt 0.312500 0.500000
vt 0.281250 1.000000
vt 0.281250 0.500000
vt 0.250000 1.000000
vt 0.250000 0.500000
vt 0.218750 1.000000
vt 0.218750 0.500000
vt 0.187500 1.000000
vt 0.187500 0.500000
vt 0.156250 1.000000
vt 0.156250 0.500000
vt 0.125000 1.000000
vt 0.125000 0.500000
vt 0.093750 1.000000
vt 0.093750 0.500000
vt 0.062500 1.000000
vt 0.062500 0.500000
vt 0.296822 0.485388
vt 0.250000 0.490000
vt 0.203178 0.485388
vt 0.158156 0.471731
vt 0.116663 0.449553
vt 0.080294 0.419706
vt 0.050447 0.383337
vt 0.028269 0.341844
vt 0.014612 0.296822
vt 0.010000 0.250000
vt 0.014612 0.203178
vt 0.028269 0.158156
vt 0.050447 0.116663
vt 0.080294 0.080294
vt 0.116663 0.050447
vt 0.158156 0.028269
vt 0.203178 0.014612
vt 0.250000 0.010000
vt 0.296822 0.014612
vt 0.341844 0.028269
vt 0.383337 0.050447
vt 0.419706 0.080294
vt 0.449553 0.116663
vt 0.471731 0.158156
vt 0.485388 0.203178
vt 0.490000 0.250000
vt 0.485388 0.296822
vt 0.471731 0.341844
vt 0.449553 0.383337
vt 0.419706 0.419706
vt 0.383337 0.449553
vt 0.341844 0.471731
vt 0.031250 1.000000
vt 0.031250 0.500000
vt 0.000000 1.000000
vt 0.000000 0.500000
vt 0.750000 0.490000
vt 0.796822 0.485388
vt 0.841844 0.471731
vt 0.883337 0.449553
vt 0.919706 0.419706
vt 0.949553 0.383337
vt 0.971731 0.341844
vt 0.985388 0.296822
vt 0.990000 0.250000
vt 0.985388 0.203178
vt 0.971731 0.158156
vt 0.949553 0.116663
vt 0.919706 0.080294
vt 0.883337 0.050447
vt 0.841844 0.028269
vt 0.796822 0.014612
vt 0.750000 0.010000
vt 0.703178 0.014612
vt 0.658156 0.028269
vt 0.616663 0.050447
vt 0.580294 0.080294
vt 0.550447 0.116663
vt 0.528269 0.158156
vt 0.514612 0.203178
vt 0.510000 0.250000
vt 0.514612 0.296822
vt 0.528269 0.341844
vt 0.550447 0.383337
vt 0.580294 0.419706
vt 0.616663 0.449553
vt 0.658156 0.471731
vt 0.703178 0.485388
vt 0.250000 0.490000
vt 0.250000 0.250000
vt 0.296822 0.485388
vt 0.341844 0.471731
vt 0.383337 0.449553
vt 0.419706 0.419706
vt 0.449553 0.383337
vt 0.471731 0.341844
vt 0.485388 0.296822
vt 0.490000 0.250000
vt 0.485388 0.203178
vt 0.471731 0.158156
vt 0.449553 0.116663
vt 0.419706 0.080294
vt 0.383337 0.050447
vt 0.341844 0.028269
vt 0.296822 0.014612
vt 0.250000 0.010000
vt 0.203178 0.014612
vt 0.158156 0.028269
vt 0.116663 0.050447
vt 0.080294 0.080294
vt 0.050447 0.116663
vt 0.028269 0.158156
vt 0.014612 0.203178
vt 0.010000 0.250000
vt 0.014612 0.296822
vt 0.028269 0.341844
vt 0.050447 0.383337
vt 0.080294 0.419706
vt 0.116663 0.449553
vt 0.158156 0.471731
vt 0.750000 0.490000
vt 0.796822 0.485388
vt 0.841844 0.471731
vt 0.883337 0.449553
vt 0.919706 0.419706
vt 0.949553 0.383337
vt 0.971731 0.341844
vt 0.985388 0.296822
vt 0.990000 0.250000
vt 0.985388 0.203178
vt 0.971731 0.158156
vt 0.949553 0.116663
vt 0.919706 0.080294
vt 0.883337 0.050447
vt 0.841844 0.028269
vt 0.796822 0.014612
vt 0.750000 0.010000
vt 0.703178 0.014612
vt 0.658156 0.028269
vt 0.616663 0.050447
vt 0.580294 0.080294
vt 0.550447 0.116663
vt 0.528269 0.158156
vt 0.514612 0.203178
vt 0.510000 0.250000
vt 0.514612 0.296822
vt 0.528269 0.341844
vt 0.550447 0.383337
vt 0.580294 0.419706
vt 0.616663 0.449553
vt 0.658156 0.471731
vt 0.703178 0.485388
vt 0.203178 0.485388
vt 1.000000 0.500000
vt 1.000000 1.000000
vt 0.968750 1.000000
vt 0.968750 0.500000
vt 0.937500 1.000000
vt 0.937500 0.500000
vt 0.906250 1.000000
vt 0.906250 0.500000
vt 0.875000 1.000000
vt 0.875000 0.500000
vt 0.843750 1.000000
vt 0.843750 0.500000
vt 0.812500 1.000000
vt 0.812500 0.500000
vt 0.781250 1.000000
vt 0.781250 0.500000
vt 0.750000 1.000000
vt 0.750000 0.500000
vt 0.718750 1.000000
vt 0.718750 0.500000
vt 0.687500 1.000000
vt 0.687500 0.500000
vt 0.656250 1.000000
vt 0.656250 0.500000
vt 0.625000 1.000000
vt 0.625000 0.500000
vt 0.593750 1.000000
vt 0.593750 0.500000
vt 0.562500 1.000000
vt 0.562500 0.500000
vt 0.531250 1.000000
vt 0.531250 0.500000
vt 0.500000 1.000000
vt 0.500000 0.500000
vt 0.468750 1.000000
vt 0.468750 0.500000
vt 0.437500 1.000000
vt 0.437500 0.500000
vt 0.406250 1.000000
vt 0.406250 0.500000
vt 0.375000 1.000000
vt 0.375000 0.500000
vt 0.343750 1.000000
vt 0.343750 0.500000
vt 0.312500 1.000000
vt 0.312500 0.500000
vt 0.281250 1.000000
vt 0.281250 0.500000
vt 0.250000 1.000000
vt 0.250000 0.500000
vt 0.218750 1.000000
vt 0.218750 0.500000
vt 0.187500 1.000000
vt 0.187500 0.500000
vt 0.156250 1.000000
vt 0.156250 0.500000
vt 0.125000 1.000000
vt 0.125000 0.500000
vt 0.093750 1.000000
vt 0.093750 0.500000
vt 0.062500 1.000000
vt 0.062500 0.500000
vt 0.296822 0.485388
vt 0.250000 0.490000
vt 0.203178 0.485388
vt 0.158156 0.471731
vt 0.116663 0.449553
vt 0.080294 0.419706
vt 0.050447 0.383337
vt 0.028269 0.341844
vt 0.014612 0.296822
vt 0.010000 0.250000
vt 0.014612 0.203178
vt 0.028269 0.158156
vt 0.050447 0.116663
vt 0.080294 0.080294
vt 0.116663 0.050447
vt 0.158156 0.028269
vt 0.203178 0.014612
vt 0.250000 0.010000
vt 0.296822 0.014612
vt 0.341844 0.028269
vt 0.383337 0.050447
vt 0.419706 0.080294
vt 0.449553 0.116663
vt 0.471731 0.158156
vt 0.485388 0.203178
vt 0.490000 0.250000
vt 0.485388 0.296822
vt 0.471731 0.341844
vt 0.449553 0.383337
vt 0.419706 0.419706
vt 0.383337 0.449553
vt 0.341844 0.471731
vt 0.031250 1.000000
vt 0.031250 0.500000
vt 0.000000 1.000000
vt 0.000000 0.500000
vt 0.750000 0.490000
vt 0.796822 0.485388
vt 0.841844 0.471731
vt 0.883337 0.449553
vt 0.919706 0.419706
vt 0.949553 0.383337
vt 0.971731 0.341844
vt 0.985388 0.296822
vt 0.990000 0.250000
vt 0.985388 0.203178
vt 0.971731 0.158156
vt 0.949553 0.116663
vt 0.919706 0.080294
vt 0.883337 0.050447
vt 0.841844 0.028269
vt 0.796822 0.014612
vt 0.750000 0.010000
vt 0.703178 0.014612
vt 0.658156 0.028269
vt 0.616663 0.050447
vt 0.580294 0.080294
vt 0.550447 0.116663
vt 0.528269 0.158156
vt 0.514612 0.203178
vt 0.510000 0.250000
vt 0.514612 0.296822
vt 0.528269 0.341844
vt 0.550447 0.383337
vt 0.580294 0.419706
vt 0.616663 0.449553
vt 0.658156 0.471731
vt 0.703178 0.485388
vt 0.000000 0.000000
vt 1.000000 0.000000
vt 1.000000 1.000000
vt 0.000000 1.000000
vt 0.000000 0.000000
vt 1.000000 0.000000
vt 1.000000 1.000000
vt 0.000000 1.000000
vt 0.000000 0.000000
vt 1.000000 0.000000
vt 1.000000 1.000000
vt 0.000000 1.000000
vt 0.000000 0.000000
vt 1.000000 0.000000
vt 1.000000 1.000000
vt 0.000000 1.000000
vt 1.000000 0.500000
vt 1.000000 1.000000
vt 0.968750 1.000000
vt 0.968750 0.500000
vt 0.937500 1.000000
vt 0.937500 0.500000
vt 0.906250 1.000000
vt 0.906250 0.500000
vt 0.875000 1.000000
vt 0.875000 0.500000
vt 0.843750 1.000000
vt 0.843750 0.500000
vt 0.812500 1.000000
vt 0.812500 0.500000
vt 0.781250 1.000000
vt 0.781250 0.500000
vt 0.750000 1.000000
vt 0.750000 0.500000
vt 0.718750 1.000000
vt 0.718750 0.500000
vt 0.687500 1.000000
vt 0.687500 0.500000
vt 0.656250 1.000000
vt 0.656250 0.500000
vt 0.625000 1.000000
vt 0.625000 0.500000
vt 0.593750 1.000000
vt 0.593750 0.500000
vt 0.562500 1.000000
vt 0.562500 0.500000
vt 0.531250 1.000000
vt 0.531250 0.500000
vt 0.500000 1.000000
vt 0.500000 0.500000
vt 0.468750 1.000000
vt 0.468750 0.500000
vt 0.437500 1.000000
vt 0.437500 0.500000
vt 0.406250 1.000000
vt 0.406250 0.500000
vt 0.375000 1.000000
vt 0.375000 0.500000
vt 0.343750 1.000000
vt 0.343750 0.500000
vt 0.312500 1.000000
vt 0.312500 0.500000
vt 0.281250 1.000000
vt 0.281250 0.500000
vt 0.250000 1.000000
vt 0.250000 0.500000
vt 0.218750 1.000000
vt 0.218750 0.500000
vt 0.187500 1.000000
vt 0.187500 0.500000
vt 0.156250 1.000000
vt 0.156250 0.500000
vt 0.125000 1.000000
vt 0.125000 0.500000
vt 0.093750 1.000000
vt 0.093750 0.500000
vt 0.062500 1.000000
vt 0.062500 0.500000
vt 0.296822 0.485388
vt 0.250000 0.490000
vt 0.203178 0.485388
vt 0.158156 0.471731
vt 0.116663 0.449553
vt 0.080294 0.419706
vt 0.050447 0.383337
vt 0.028269 0.341844
vt 0.014612 0.296822
vt 0.010000 0.250000
vt 0.014612 0.203178
vt 0.028269 0.158156
vt 0.050447 0.116663
vt 0.080294 0.080294
vt 0.116663 0.050447
vt 0.158156 0.028269
vt 0.203178 0.014612
vt 0.250000 0.010000
vt 0.296822 0.014612
vt 0.341844 0.028269
vt 0.383337 0.050447
vt 0.419706 0.080294
vt 0.449553 0.116663
vt 0.471731 0.158156
vt 0.485388 0.203178
vt 0.490000 0.250000
vt 0.485388 0.296822
vt 0.471731 0.341844
vt 0.449553 0.383337
vt 0.419706 0.419706
vt 0.383337 0.449553
vt 0.341844 0.471731
vt 0.031250 1.000000
vt 0.031250 0.500000
vt 0.000000 1.000000
vt 0.000000 0.500000
vt 0.750000 0.490000
vt 0.796822 0.485388
vt 0.841844 0.471731
vt 0.883337 0.449553
vt 0.919706 0.419706
vt 0.949553 0.383337
vt 0.971731 0.341844
vt 0.985388 0.296822
vt 0.990000 0.250000
vt 0.985388 0.203178
vt 0.971731 0.158156
vt 0.949553 0.116663
vt 0.919706 0.080294
vt 0.883337 0.050447
vt 0.841844 0.028269
vt 0.796822 0.014612
vt 0.750000 0.010000
vt 0.703178 0.014612
vt 0.658156 0.028269
vt 0.616663 0.050447
vt 0.580294 0.080294
vt 0.550447 0.116663
vt 0.528269 0.158156
vt 0.514612 0.203178
vt 0.510000 0.250000
vt 0.514612 0.296822
vt 0.528269 0.341844
vt 0.550447 0.383337
vt 0.580294 0.419706
vt 0.616663 0.449553
vt 0.658156 0.471731
vt 0.703178 0.485388
vt 1.000000 0.500000
vt 1.000000 1.000000
vt 0.968750 1.000000
vt 0.968750 0.500000
vt 0.937500 1.000000
vt 0.937500 0.500000
vt 0.906250 1.000000
vt 0.906250 0.500000
vt 0.875000 1.000000
vt 0.875000 0.500000
vt 0.843750 1.000000
vt 0.843750 0.500000
vt 0.812500 1.000000
vt 0.812500 0.500000
vt 0.781250 1.000000
vt 0.781250 0.500000
vt 0.750000 1.000000
vt 0.750000 0.500000
vt 0.718750 1.000000
vt 0.718750 0.500000
vt 0.687500 1.000000
vt 0.687500 0.500000
vt 0.656250 1.000000
vt 0.656250 0.500000
vt 0.625000 1.000000
vt 0.625000 0.500000
vt 0.593750 1.000000
vt 0.593750 0.500000
vt 0.562500 1.000000
vt 0.562500 0.500000
vt 0.531250 1.000000
vt 0.531250 0.500000
vt 0.500000 1.000000
vt 0.500000 0.500000
vt 0.468750 1.000000
vt 0.468750 0.500000
vt 0.437500 1.000000
vt 0.437500 0.500000
vt 0.406250 1.000000
vt 0.406250 0.500000
vt 0.375000 1.000000
vt 0.375000 0.500000
vt 0.343750 1.000000
vt 0.343750 0.500000
vt 0.312500 1.000000
vt 0.312500 0.500000
vt 0.281250 1.000000
vt 0.281250 0.500000
vt 0.250000 1.000000
vt 0.250000 0.500000
vt 0.218750 1.000000
vt 0.218750 0.500000
vt 0.187500 1.000000
vt 0.187500 0.500000
vt 0.156250 1.000000
vt 0.156250 0.500000
vt 0.125000 1.000000
vt 0.125000 0.500000
vt 0.093750 1.000000
vt 0.093750 0.500000
vt 0.062500 1.000000
vt 0.062500 0.500000
vt 0.296822 0.485388
vt 0.250000 0.490000
vt 0.203178 0.485388
vt 0.158156 0.471731
vt 0.116663 0.449553
vt 0.080294 0.419706
vt 0.050447 0.383337
vt 0.028269 0.341844
vt 0.014612 0.296822
vt 0.010000 0.250000
vt 0.014612 0.203178
vt 0.028269 0.158156
vt 0.050447 0.116663
vt 0.080294 0.080294
vt 0.116663 0.050447
vt 0.158156 0.028269
vt 0.203178 0.014612
vt 0.250000 0.010000
vt 0.296822 0.014612
vt 0.341844 0.028269
vt 0.383337 0.050447
vt 0.419706 0.080294
vt 0.449553 0.116663
vt 0.471731 0.158156
vt 0.485388 0.203178
vt 0.490000 0.250000
vt 0.485388 0.296822
vt 0.471731 0.341844
vt 0.449553 0.383337
vt 0.419706 0.419706
vt 0.383337 0.449553
vt 0.341844 0.471731
vt 0.031250 1.000000
vt 0.031250 0.500000
vt 0.000000 1.000000
vt 0.000000 0.500000
vt 0.750000 0.490000
vt 0.796822 0.485388
vt 0.841844 0.471731
vt 0.883337 0.449553
vt 0.919706 0.419706
vt 0.949553 0.383337
vt 0.971731 0.341844
vt 0.985388 0.296822
vt 0.990000 0.250000
vt 0.985388 0.203178
vt 0.971731 0.158156
vt 0.949553 0.116663
vt 0.919706 0.080294
vt 0.883337 0.050447
vt 0.841844 0.028269
vt 0.796822 0.014612
vt 0.750000 0.010000
vt 0.703178 0.014612
vt 0.658156 0.028269
vt 0.616663 0.050447
vt 0.580294 0.080294
vt 0.550447 0.116663
vt 0.528269 0.158156
vt 0.514612 0.203178
vt 0.510000 0.250000
vt 0.514612 0.296822
vt 0.528269 0.341844
vt 0.550447 0.383337
vt 0.580294 0.419706
vt 0.616663 0.449553
vt 0.658156 0.471731
vt 0.703178 0.485388
vn -0.0000 -1.0000 -0.0000
vn -0.1951 -0.9808 -0.0000
vn -0.3827 -0.9239 -0.0000
vn -0.5556 -0.8315 -0.0000
vn -0.7071 -0.7071 -0.0000
vn -0.8315 -0.5556 -0.0000
vn -0.9239 -0.3827 -0.0000
vn -0.9808 -0.1951 -0.0000
vn -1.0000 -0.0000 -0.0000
vn -0.9808 0.1951 -0.0000
vn -0.9239 0.3827 -0.0000
vn -0.8315 0.5556 -0.0000
vn -0.7071 0.7071 -0.0000
vn -0.5556 0.8315 -0.0000
vn -0.3827 0.9239 -0.0000
vn -0.1951 0.9808 -0.0000
vn -0.0000 1.0000 -0.0000
vn 0.1951 0.9808 -0.0000
vn 0.3827 0.9239 -0.0000
vn 0.5556 0.8315 -0.0000
vn 0.7071 0.7071 -0.0000
vn 0.8315 0.5556 -0.0000
vn 0.9239 0.3827 -0.0000
vn 0.9808 0.1951 -0.0000
vn 1.0000 -0.0000 -0.0000
vn 0.9808 -0.1951 -0.0000
vn 0.9239 -0.3827 -0.0000
vn 0.8315 -0.5556 -0.0000
vn 0.7071 -0.7071 -0.0000
vn 0.5556 -0.8315 -0.0000
vn 0.3827 -0.9239 -0.0000
vn -0.0000 -0.0000 1.0000
vn 0.1951 -0.9808 -0.0000
vn -0.0000 -0.0000 -1.0000
vn -0.0000 -0.8480 0.5300
vn -0.0000 -0.0000 1.0000
vn -0.1654 -0.8317 0.5300
vn -0.3245 -0.7834 0.5300
vn -0.4711 -0.7051 0.5300
vn -0.5996 -0.5996 0.5300
vn -0.7051 -0.4711 0.5300
vn -0.7834 -0.3245 0.5300
vn -0.8317 -0.1654 0.5300
vn -0.8480 -0.0000 0.5300
vn -0.8317 0.1654 0.5300
vn -0.7834 0.3245 0.5300
vn -0.7051 0.4711 0.5300
vn -0.5996 0.5996 0.5300
vn -0.4711 0.7051 0.5300
vn -0.3245 0.7834 0.5300
vn -0.1654 0.8317 0.5300
vn -0.0000 0.8480 0.5300
vn 0.1654 0.8317 0.5300
vn 0.3245 0.7834 0.5300
vn 0.4711 0.7051 0.5300
vn 0.5996 0.5996 0.5300
vn 0.7051 0.4711 0.5300
vn 0.7834 0.3245 0.5300
vn 0.8317 0.1654 0.5300
vn 0.8480 -0.0000 0.5300
vn 0.8317 -0.1654 0.5300
vn 0.7834 -0.3245 0.5300
vn 0.7051 -0.4711 0.5300
vn 0.5996 -0.5996 0.5300
vn 0.4711 -0.7051 0.5300
vn 0.3245 -0.7834 0.5300
vn -0.0000 -0.0000 -1.0000
vn 0.1654 -0.8317 0.5300
vn -0.0000 -0.9363 -0.3511
vn -0.1827 -0.9183 -0.3511
vn -0.3583 -0.8651 -0.3511
vn -0.5202 -0.7785 -0.3511
vn -0.6621 -0.6621 -0.3511
vn -0.7785 -0.5202 -0.3511
vn -0.8651 -0.3583 -0.3511
vn -0.9183 -0.1827 -0.3511
vn -0.9363 -0.0000 -0.3511
vn -0.9183 0.1827 -0.3511
vn -0.8651 0.3583 -0.3511
vn -0.7785 0.5202 -0.3511
vn -0.6621 0.6621 -0.3511
vn -0.5202 0.7785 -0.3511
vn -0.3583 0.8651 -0.3511
vn -0.1827 0.9183 -0.3511
vn -0.0000 0.9363 -0.3511
vn 0.1827 0.9183 -0.3511
vn 0.3583 0.8651 -0.3511
vn 0.5202 0.7785 -0.3511
vn 0.6621 0.6621 -0.3511
vn 0.7785 0.5202 -0.3511
vn 0.8651 0.3583 -0.3511
vn 0.9183 0.1827 -0.3511
vn 0.9363 -0.0000 -0.3511
vn 0.9183 -0.1827 -0.3511
vn 0.8651 -0.3583 -0.3511
vn 0.7785 -0.5202 -0.3511
vn 0.6621 -0.6621 -0.3511
vn 0.5202 -0.7785 -0.3511
vn 0.3583 -0.8651 -0.3511
vn -0.0000 -0.0000 1.0000
vn 0.1827 -0.9183 -0.3511
vn -0.0000 -0.0000 -1.0000
vn -0.0000 1.0000 -0.0000
vn -0.0000 -1.0000 -0.0000
vn 1.0000 -0.0000 -0.0000
vn -0.0000 -0.0000 -1.0000
vn -1.0000 -0.0000 -0.0000
vn -0.8321 -0.0000 0.5547
vn -1.0000 -0.0000 -0.0000
vn 1.0000 -0.0000 -0.0000
vn -0.0000 1.0000 -0.0000
vn -0.0000 -0.0000 -1.0000
vn -0.0000 -1.0000 -0.0000
vn -0.0000 -0.8321 0.5547
vn -0.0000 -1.0000 -0.0000
vn -0.0000 1.0000 -0.0000
vn -1.0000 -0.0000 -0.0000
vn -0.0000 -0.0000 -1.0000
vn 1.0000 -0.0000 -0.0000
vn 0.8321 -0.0000 0.5547
vn 1.0000 -0.0000 -0.0000
vn -1.0000 -0.0000 -0.0000
vn -0.0000 -1.0000 -0.0000
vn -0.0000 -0.0000 -1.0000
vn -0.0000 1.0000 -0.0000
vn -0.0000 0.8321 0.5547
vn -0.0980 -0.9952 -0.0000
vn -0.2903 -0.9569 -0.0000
vn -0.4714 -0.8819 -0.0000
vn -0.6344 -0.7730 -0.0000
vn -0.7730 -0.6344 -0.0000
vn -0.8819 -0.4714 -0.0000
vn -0.9569 -0.2903 -0.0000
vn -0.9952 -0.0980 -0.0000
vn -0.9952 0.0980 -0.0000
vn -0.9569 0.2903 -0.0000
vn -0.8819 0.4714 -0.0000
vn -0.7730 0.6344 -0.0000
vn -0.6344 0.7730 -0.0000
vn -0.4714 0.8819 -0.0000
vn -0.2903 0.9569 -0.0000
vn -0.0980 0.9952 -0.0000
vn 0.0980 0.9952 -0.0000
vn 0.2903 0.9569 -0.0000
vn 0.4714 0.8819 -0.0000
vn 0.6344 0.7730 -0.0000
vn 0.7730 0.6344 -0.0000
vn 0.8819 0.4714 -0.0000
vn 0.9569 0.2903 -0.0000
vn 0.9952 0.0980 -0.0000
vn 0.9952 -0.0980 -0.0000
vn 0.9569 -0.2903 -0.0000
vn 0.8819 -0.4714 -0.0000
vn 0.7730 -0.6344 -0.0000
vn 0.6344 -0.7730 -0.0000
vn 0.4714 -0.8819 -0.0000
vn -0.0000 -0.0000 1.0000
vn 0.2903 -0.9569 -0.0000
vn 0.0980 -0.9952 -0.0000
vn -0.0000 -0.0000 -1.0000
vn -0.0980 -0.9952 -0.0000
vn -0.2903 -0.9569 -0.0000
vn -0.4714 -0.8819 -0.0000
vn -0.6344 -0.7730 -0.0000
vn -0.7730 -0.6344 -0.0000
vn -0.8819 -0.4714 -0.0000
vn -0.9569 -0.2903 -0.0000
vn -0.9952 -0.0980 -0.0000
vn -0.9952 0.0980 -0.0000
vn -0.9569 0.2903 -0.0000
vn -0.8819 0.4714 -0.0000
vn -0.7730 0.6344 -0.0000
vn -0.6344 0.7730 -0.0000
vn -0.4714 0.8819 -0.0000
vn -0.2903 0.9569 -0.0000
vn -0.0980 0.9952 -0.0000
vn 0.0980 0.9952 -0.0000
vn 0.2903 0.9569 -0.0000
vn 0.4714 0.8819 -0.0000
vn 0.6344 0.7730 -0.0000
vn 0.7730 0.6344 -0.0000
vn 0.8819 0.4714 -0.0000
vn 0.9569 0.2903 -0.0000
vn 0.9952 0.0980 -0.0000
vn 0.9952 -0.0980 -0.0000
vn 0.9569 -0.2903 -0.0000
vn 0.8819 -0.4714 -0.0000
vn 0.7730 -0.6344 -0.0000
vn 0.6344 -0.7730 -0.0000
vn 0.4714 -0.8819 -0.0000
vn -0.0000 -0.0000 1.0000
vn 0.2903 -0.9569 -0.0000
vn 0.0980 -0.9952 -0.0000
vn -0.0000 -0.0000 -1.0000
usemtl main_body
f 1/1/1 2/2/1 4/3/2 3/4/2
f 3/4/2 4/3/2 6/5/3 5/6/3
f 5/6/3 6/5/3 8/7/4 7/8/4
f 7/8/4 8/7/4 10/9/5 9/10/5
f 9/10/5 10/9/5 12/11/6 11/12/6
f 11/12/6 12/11/6 14/13/7 13/14/7
f 13/14/7 14/13/7 16/15/8 15/16/8
f 15/16/8 16/15/8 18/17/9 17/18/9
f 17/18/9 18/17/9 20/19/10 19/20/10
f 19/20/10 20/19/10 22/21/11 21/22/11
f 21/22/11 22/21/11 24/23/12 23/24/12
f 23/24/12 24/23/12 26/25/13 25/26/13
f 25/26/13 26/25/13 28/27/14 27/28/14
f 27/28/14 28/27/14 30/29/15 29/30/15
f 29/30/15 30/29/15 32/31/16 31/32/16
f 31/32/16 32/31/16 34/33/17 33/34/17
f 33/34/17 34/33/17 36/35/18 35/36/18
f 35/36/18 36/35/18 38/37/19 37/38/19
f 37/38/19 38/37/19 40/39/20 39/40/20
f 39/40/20 40/39/20 42/41/21 41/42/21
f 41/42/21 42/41/21 44/43/22 43/44/22
f 43/44/22 44/43/22 46/45/23 45/46/23
f 45/46/23 46/45/23 48/47/24 47/48/24
f 47/48/24 48/47/24 50/49/25 49/50/25
f 49/50/25 50/49/25 52/51/26 51/52/26
f 51/52/26 52/51/26 54/53/27 53/54/27
f 53/54/27 54/53/27 56/55/28 55/56/28
f 55/56/28 56/55/28 58/57/29 57/58/29
f 57/58/29 58/57/29 60/59/30 59/60/30
f 59/60/30 60/59/30 62/61/31 61/62/31
f 4/63/32 2/64/32 64/65/32 62/66/32 60/67/32 58/68/32 56/69/32 54/70/32 52/71/32 50/72/32 48/73/32 46/74/32 44/75/32 42/76/32 40/77/32 38/78/32 36/79/32 34/80/32 32/81/32 30/82/32 28/83/32 26/84/32 24/85/32 22/86/32 20/87/32 18/88/32 16/89/32 14/90/32 12/91/32 10/92/32 8/93/32 6/94/32
f 61/62/31 62/61/31 64/95/33 63/96/33
f 63/96/33 64/95/33 2/97/1 1/98/1
f 1/99/34 3/100/34 5/101/34 7/102/34 9/103/34 11/104/34 13/105/34 15/106/34 17/107/34 19/108/34 21/109/34 23/110/34 25/111/34 27/112/34 29/113/34 31/114/34 33/115/34 35/116/34 37/117/34 39/118/34 41/119/34 43/120/34 45/121/34 47/122/34 49/123/34 51/124/34 53/125/34 55/126/34 57/127/34 59/128/34 61/129/34 63/130/34
f 65/131/35 97/132/36 66/133/37
f 66/133/37 97/132/36 67/134/38
f 67/134/38 97/132/36 68/135/39
f 68/135/39 97/132/36 69/136/40
f 69/136/40 97/132/36 70/137/41
f 70/137/41 97/132/36 71/138/42
f 71/138/42 97/132/36 72/139/43
f 72/139/43 97/132/36 73/140/44
f 73/140/44 97/132/36 74/141/45
f 74/141/45 97/132/36 75/142/46
f 75/142/46 97/132/36 76/143/47
f 76/143/47 97/132/36 77/144/48
f 77/144/48 97/132/36 78/145/49
f 78/145/49 97/132/36 79/146/50
f 79/146/50 97/132/36 80/147/51
f 80/147/51 97/132/36 81/148/52
f 81/148/52 97/132/36 82/149/53
f 82/149/53 97/132/36 83/150/54
f 83/150/54 97/132/36 84/151/55
f 84/151/55 97/132/36 85/152/56
f 85/152/56 97/132/36 86/153/57
f 86/153/57 97/132/36 87/154/58
f 87/154/58 97/132/36 88/155/59
f 88/155/59 97/132/36 89/156/60
f 89/156/60 97/132/36 90/157/61
f 90/157/61 97/132/36 91/158/62
f 91/158/62 97/132/36 92/159/63
f 92/159/63 97/132/36 93/160/64
f 93/160/64 97/132/36 94/161/65
f 94/161/65 97/132/36 95/162/66
f 65/163/67 66/164/67 67/165/67 68/166/67 69/167/67 70/168/67 71/169/67 72/170/67 73/171/67 74/172/67 75/173/67 76/174/67 77/175/67 78/176/67 79/177/67 80/178/67 81/179/67 82/180/67 83/181/67 84/182/67 85/183/67 86/184/67 87/185/67 88/186/67 89/187/67 90/188/67 91/189/67 92/190/67 93/191/67 94/192/67 95/193/67 96/194/67
f 95/162/66 97/132/36 96/195/68
f 96/195/68 97/132/36 65/131/35
